<svg xmlns="http://www.w3.org/2000/svg" viewBox="0 0 160 160" fill="none"><g id="commercial-block-modern predio-comercial-moderno-2-asset" data-asset-type="commercial-block-modern predio-comercial-moderno-2" data-category="wealthy" data-density="low"><g transform="translate(10 21.67) scale(0.7292)" id="commercial-block-modern predio-comercial-moderno-2-render-root"><g id="placement-anchor-shadow-2" transform="translate(-6 -3) scale(1.013)" data-module-id="anchor-shadow" data-node-id="anchor-shadow-2" data-layer="midground"></g><g id="placement-commercial-modern-core-1" transform="translate(-1 4) scale(0.995)" data-module-id="commercial-modern-core" data-node-id="commercial-modern-core-1" data-layer="foreground"><g><polygon points="92,80 118,91 92,102 66,91" fill="#c7d3db" stroke="#2f241f" stroke-width="1.8" stroke-linejoin="round"/><polygon points="66,91 92,102 92,142 66,131" fill="#5b7585" stroke="#2f241f" stroke-width="1.8" stroke-linejoin="round"/><polygon points="92,80 118,91 118,131 92,120" fill="#6c8898" stroke="#2f241f" stroke-width="1.8" stroke-linejoin="round"/></g><polygon points="76,86 84,90 84,97 76,93" fill="#91d5f0" stroke="#2f241f" stroke-width="1.1" stroke-linejoin="round"/><polygon points="90,86 98,90 98,97 90,93" fill="#91d5f0" stroke="#2f241f" stroke-width="1.1" stroke-linejoin="round"/><polygon points="104,86 112,90 112,97 104,93" fill="#91d5f0" stroke="#2f241f" stroke-width="1.1" stroke-linejoin="round"/><polygon points="76,98 84,102 84,109 76,105" fill="#91d5f0" stroke="#2f241f" stroke-width="1.1" stroke-linejoin="round"/><polygon points="90,98 98,102 98,109 90,105" fill="#91d5f0" stroke="#2f241f" stroke-width="1.1" stroke-linejoin="round"/><polygon points="104,98 112,102 112,109 104,105" fill="#91d5f0" stroke="#2f241f" stroke-width="1.1" stroke-linejoin="round"/><rect x="72" y="104" width="38" height="8" fill="#e2ecef" rx="2"/><rect x="84" y="108" width="18" height="12" fill="#d8f3fb" rx="1"/></g><g id="placement-commercial-modern-core-3" transform="translate(1 -13) scale(1.014)" data-module-id="commercial-modern-core" data-node-id="commercial-modern-core-3" data-layer="overlay"><g><polygon points="92,80 118,91 92,102 66,91" fill="#c7d3db" stroke="#2f241f" stroke-width="1.8" stroke-linejoin="round"/><polygon points="66,91 92,102 92,142 66,131" fill="#5b7585" stroke="#2f241f" stroke-width="1.8" stroke-linejoin="round"/><polygon points="92,80 118,91 118,131 92,120" fill="#6c8898" stroke="#2f241f" stroke-width="1.8" stroke-linejoin="round"/></g><polygon points="76,86 84,90 84,97 76,93" fill="#91d5f0" stroke="#2f241f" stroke-width="1.1" stroke-linejoin="round"/><polygon points="90,86 98,90 98,97 90,93" fill="#91d5f0" stroke="#2f241f" stroke-width="1.1" stroke-linejoin="round"/><polygon points="104,86 112,90 112,97 104,93" fill="#91d5f0" stroke="#2f241f" stroke-width="1.1" stroke-linejoin="round"/><polygon points="76,98 84,102 84,109 76,105" fill="#91d5f0" stroke="#2f241f" stroke-width="1.1" stroke-linejoin="round"/><polygon points="90,98 98,102 98,109 90,105" fill="#91d5f0" stroke="#2f241f" stroke-width="1.1" stroke-linejoin="round"/><polygon points="104,98 112,102 112,109 104,105" fill="#91d5f0" stroke="#2f241f" stroke-width="1.1" stroke-linejoin="round"/><rect x="72" y="104" width="38" height="8" fill="#e2ecef" rx="2"/><rect x="84" y="108" width="18" height="12" fill="#d8f3fb" rx="1"/></g></g></g></svg>
