<svg xmlns="http://www.w3.org/2000/svg" viewBox="0 0 160 160" fill="none"><g id="gym treino-asset" data-asset-type="gym treino" data-category="poor" data-density="medium-low"><g transform="translate(10 21.67) scale(0.7292)" id="gym treino-render-root"><g id="placement-gym-sign-2" transform="translate(1 0) scale(1.009)" data-module-id="gym-sign" data-node-id="gym-sign-2" data-layer="midground"><rect x="78" y="96" width="28" height="8" fill="#e4b84e" rx="2"/><line x1="82" y1="100" x2="102" y2="100" stroke="#4a3524" stroke-width="2"/><rect x="86" y="103" width="4" height="12" fill="#4a3524" rx="1"/><rect x="94" y="103" width="4" height="12" fill="#4a3524" rx="1"/></g><g id="placement-gym-core-1" transform="translate(-5 5) scale(1.033)" data-module-id="gym-core" data-node-id="gym-core-1" data-layer="foreground"><g><polygon points="94,100 122,110 94,120 66,110" fill="#b9a17b" stroke="#2f241f" stroke-width="1.8" stroke-linejoin="round"/><polygon points="66,110 94,120 94,142 66,132" fill="#69543b" stroke="#2f241f" stroke-width="1.8" stroke-linejoin="round"/><polygon points="94,100 122,110 122,132 94,122" fill="#806746" stroke="#2f241f" stroke-width="1.8" stroke-linejoin="round"/></g><rect x="66" y="99" width="46" height="10" fill="#30251d" rx="2"/><rect x="72" y="101" width="34" height="5" fill="#e4b84e" rx="1.5"/><rect x="84" y="108" width="16" height="16" fill="#241b15" rx="1.5"/><rect x="69" y="111" width="10" height="8" fill="#8d7456" rx="1"/><rect x="104" y="111" width="10" height="8" fill="#8d7456" rx="1"/></g><g id="placement-anchor-shadow-3" transform="translate(-4 -9) scale(0.989)" data-module-id="anchor-shadow" data-node-id="anchor-shadow-3" data-layer="overlay"></g></g></g></svg>
