<svg xmlns="http://www.w3.org/2000/svg" id="svg92" fill="none" viewBox="0 0 160 160"><g id="g90"><ellipse id="ellipse2" cx="90" cy="126" fill="rgba(23, 31, 38, 0.2)" rx="34" ry="10"/><polygon id="polygon4" fill="#77a8c3" stroke="#22303a" stroke-width="2" points="99,30 107,34 99,38 91,34"/><rect id="rect6" width="6" height="12" x="96" y="34" fill="#77a8c3" stroke="#22303a" stroke-width="1.5" rx="1.5"/><path id="path8" fill="none" stroke="#22303a" stroke-linecap="round" stroke-width="2" d="m44 86 13-10v16"/><line id="line10" x1="52" x2="58" y1="83" y2="80" stroke="#22303a" stroke-width="1.5"/><line id="line12" x1="50" x2="56" y1="87" y2="84" stroke="#22303a" stroke-width="1.5"/><line id="line14" x1="48" x2="54" y1="91" y2="88" stroke="#22303a" stroke-width="1.5"/><rect id="rect16" width="18" height="8" x="36" y="93" fill="#6d8d6b" opacity=".85" rx="1.5"/><g id="g28"><polygon id="polygon18" fill="#7d7268" stroke="#22303a" stroke-width="2" points="52,44 82,52 82,86 52,78"/><polygon id="polygon20" fill="#beb7af" stroke="#22303a" stroke-width="2" points="112,44 82,52 82,86 112,78"/><polygon id="polygon22" fill="#6f777d" stroke="#22303a" stroke-width="2" points="82,36 112,44 82,52 52,44"/><rect id="rect24" width="7" height="6" x="74" y="60" fill="#cfe6ef" rx="1.5"/><rect id="rect26" width="7" height="6" x="85" y="60" fill="#cfe6ef" rx="1.5"/></g><g id="g40"><polygon id="polygon30" fill="#998e84" stroke="#22303a" stroke-width="2" points="34,54 56,60 56,84 34,78"/><polygon id="polygon32" fill="#9c6751" stroke="#22303a" stroke-width="2" points="78,54 56,60 56,84 78,78"/><polygon id="polygon34" fill="#8a5d4a" stroke="#22303a" stroke-width="2" points="56,48 78,54 56,60 34,54"/><rect id="rect36" width="7" height="6" x="48" y="68" fill="#cfe6ef" rx="1.5"/><rect id="rect38" width="7" height="6" x="59" y="68" fill="#cfe6ef" rx="1.5"/></g><g id="g52"><polygon id="polygon42" fill="#7d7268" stroke="#22303a" stroke-width="2" points="88,57.5 108,63 108,85 88,79.5"/><polygon id="polygon44" fill="#998e84" stroke="#22303a" stroke-width="2" points="128,57.5 108,63 108,85 128,79.5"/><polygon id="polygon46" fill="#8a5d4a" stroke="#22303a" stroke-width="2" points="108,52 128,57.5 108,63 88,57.5"/><rect id="rect48" width="7" height="6" x="100" y="71" fill="#cfe6ef" rx="1.5"/><rect id="rect50" width="7" height="6" x="111" y="71" fill="#cfe6ef" rx="1.5"/></g><g id="g64"><polygon id="polygon54" fill="#998e84" stroke="#22303a" stroke-width="2" points="54,65 72,70 72,88 54,83"/><polygon id="polygon56" fill="#beb7af" stroke="#22303a" stroke-width="2" points="90,65 72,70 72,88 90,83"/><polygon id="polygon58" fill="#6f777d" stroke="#22303a" stroke-width="2" points="72,60 90,65 72,70 54,65"/><rect id="rect60" width="7" height="6" x="64" y="78" fill="#cfe6ef" rx="1.5"/><rect id="rect62" width="7" height="6" x="75" y="78" fill="#cfe6ef" rx="1.5"/></g><g id="g76"><polygon id="polygon66" fill="#7d7268" stroke="#22303a" stroke-width="2" points="78,68 96,73 96,89 78,84"/><polygon id="polygon68" fill="#9c6751" stroke="#22303a" stroke-width="2" points="114,68 96,73 96,89 114,84"/><polygon id="polygon70" fill="#9c6751" stroke="#22303a" stroke-width="2" points="96,63 114,68 96,73 78,68"/><rect id="rect72" width="7" height="6" x="88" y="81" fill="#cfe6ef" rx="1.5"/><rect id="rect74" width="7" height="6" x="99" y="81" fill="#cfe6ef" rx="1.5"/></g><g id="g88"><polygon id="polygon78" fill="#998e84" stroke="#22303a" stroke-width="2" points="32,71.5 48,76 48,90 32,85.5"/><polygon id="polygon80" fill="#998e84" stroke="#22303a" stroke-width="2" points="64,71.5 48,76 48,90 64,85.5"/><polygon id="polygon82" fill="#8a5d4a" stroke="#22303a" stroke-width="2" points="48,67 64,71.5 48,76 32,71.5"/><rect id="rect84" width="7" height="6" x="40" y="84" fill="#cfe6ef" rx="1.5"/><rect id="rect86" width="7" height="6" x="51" y="84" fill="#cfe6ef" rx="1.5"/></g></g></svg>
