<?xml version="1.0" encoding="UTF-8" standalone="no"?>
<svg
   viewBox="0 0 160 160"
   fill="none"
   version="1.1"
   id="svg92"
   xmlns="http://www.w3.org/2000/svg"
   xmlns:svg="http://www.w3.org/2000/svg">
  <defs
     id="defs96" />
  <g
     id="g90">
    <ellipse
       cx="90"
       cy="126"
       rx="34"
       ry="10"
       fill="rgba(23, 31, 38, 0.2)"
       id="ellipse2" />
    <polygon
       points="99,30 107,34 99,38 91,34"
       fill="#77A8C3"
       stroke="#22303A"
       stroke-width="2"
       id="polygon4" />
    <rect
       x="96"
       y="34"
       width="6"
       height="12"
       rx="1.5"
       fill="#77A8C3"
       stroke="#22303A"
       stroke-width="1.5"
       id="rect6" />
    <path
       d="M44 86 L57 76 L57 92"
       stroke="#22303A"
       stroke-width="2"
       fill="none"
       stroke-linecap="round"
       id="path8" />
    <line
       x1="52"
       y1="83"
       x2="58"
       y2="80"
       stroke="#22303A"
       stroke-width="1.5"
       id="line10" />
    <line
       x1="50"
       y1="87"
       x2="56"
       y2="84"
       stroke="#22303A"
       stroke-width="1.5"
       id="line12" />
    <line
       x1="48"
       y1="91"
       x2="54"
       y2="88"
       stroke="#22303A"
       stroke-width="1.5"
       id="line14" />
    <rect
       x="36"
       y="93"
       width="18"
       height="8"
       rx="1.5"
       fill="#6D8D6B"
       opacity="0.85"
       id="rect16" />
    <g
       id="g28">
      <polygon
         points="52,44 82,52 82,86 52,78"
         fill="#7D7268"
         stroke="#22303A"
         stroke-width="2"
         id="polygon18" />
      <polygon
         points="112,44 82,52 82,86 112,78"
         fill="#BEB7AF"
         stroke="#22303A"
         stroke-width="2"
         id="polygon20" />
      <polygon
         points="82,36 112,44 82,52 52,44"
         fill="#6F777D"
         stroke="#22303A"
         stroke-width="2"
         id="polygon22" />
      <rect
         x="74"
         y="60"
         width="7"
         height="6"
         rx="1.5"
         fill="#CFE6EF"
         id="rect24" />
      <rect
         x="85"
         y="60"
         width="7"
         height="6"
         rx="1.5"
         fill="#CFE6EF"
         id="rect26" />
    </g>
    <g
       id="g40">
      <polygon
         points="34,54 56,60 56,84 34,78"
         fill="#998E84"
         stroke="#22303A"
         stroke-width="2"
         id="polygon30" />
      <polygon
         points="78,54 56,60 56,84 78,78"
         fill="#9C6751"
         stroke="#22303A"
         stroke-width="2"
         id="polygon32" />
      <polygon
         points="56,48 78,54 56,60 34,54"
         fill="#8A5D4A"
         stroke="#22303A"
         stroke-width="2"
         id="polygon34" />
      <rect
         x="48"
         y="68"
         width="7"
         height="6"
         rx="1.5"
         fill="#CFE6EF"
         id="rect36" />
      <rect
         x="59"
         y="68"
         width="7"
         height="6"
         rx="1.5"
         fill="#CFE6EF"
         id="rect38" />
    </g>
    <g
       id="g52">
      <polygon
         points="88,57.5 108,63 108,85 88,79.5"
         fill="#7D7268"
         stroke="#22303A"
         stroke-width="2"
         id="polygon42" />
      <polygon
         points="128,57.5 108,63 108,85 128,79.5"
         fill="#998E84"
         stroke="#22303A"
         stroke-width="2"
         id="polygon44" />
      <polygon
         points="108,52 128,57.5 108,63 88,57.5"
         fill="#8A5D4A"
         stroke="#22303A"
         stroke-width="2"
         id="polygon46" />
      <rect
         x="100"
         y="71"
         width="7"
         height="6"
         rx="1.5"
         fill="#CFE6EF"
         id="rect48" />
      <rect
         x="111"
         y="71"
         width="7"
         height="6"
         rx="1.5"
         fill="#CFE6EF"
         id="rect50" />
    </g>
    <g
       id="g64">
      <polygon
         points="54,65 72,70 72,88 54,83"
         fill="#998E84"
         stroke="#22303A"
         stroke-width="2"
         id="polygon54" />
      <polygon
         points="90,65 72,70 72,88 90,83"
         fill="#BEB7AF"
         stroke="#22303A"
         stroke-width="2"
         id="polygon56" />
      <polygon
         points="72,60 90,65 72,70 54,65"
         fill="#6F777D"
         stroke="#22303A"
         stroke-width="2"
         id="polygon58" />
      <rect
         x="64"
         y="78"
         width="7"
         height="6"
         rx="1.5"
         fill="#CFE6EF"
         id="rect60" />
      <rect
         x="75"
         y="78"
         width="7"
         height="6"
         rx="1.5"
         fill="#CFE6EF"
         id="rect62" />
    </g>
    <g
       id="g76">
      <polygon
         points="78,68 96,73 96,89 78,84"
         fill="#7D7268"
         stroke="#22303A"
         stroke-width="2"
         id="polygon66" />
      <polygon
         points="114,68 96,73 96,89 114,84"
         fill="#9C6751"
         stroke="#22303A"
         stroke-width="2"
         id="polygon68" />
      <polygon
         points="96,63 114,68 96,73 78,68"
         fill="#9C6751"
         stroke="#22303A"
         stroke-width="2"
         id="polygon70" />
      <rect
         x="88"
         y="81"
         width="7"
         height="6"
         rx="1.5"
         fill="#CFE6EF"
         id="rect72" />
      <rect
         x="99"
         y="81"
         width="7"
         height="6"
         rx="1.5"
         fill="#CFE6EF"
         id="rect74" />
    </g>
    <g
       id="g88">
      <polygon
         points="32,71.5 48,76 48,90 32,85.5"
         fill="#998E84"
         stroke="#22303A"
         stroke-width="2"
         id="polygon78" />
      <polygon
         points="64,71.5 48,76 48,90 64,85.5"
         fill="#998E84"
         stroke="#22303A"
         stroke-width="2"
         id="polygon80" />
      <polygon
         points="48,67 64,71.5 48,76 32,71.5"
         fill="#8A5D4A"
         stroke="#22303A"
         stroke-width="2"
         id="polygon82" />
      <rect
         x="40"
         y="84"
         width="7"
         height="6"
         rx="1.5"
         fill="#CFE6EF"
         id="rect84" />
      <rect
         x="51"
         y="84"
         width="7"
         height="6"
         rx="1.5"
         fill="#CFE6EF"
         id="rect86" />
    </g>
  </g>
</svg>
