<svg xmlns="http://www.w3.org/2000/svg" viewBox="0 0 192 160" fill="none"><g id="placement-corrugated-roof-5" transform="translate(4 2) scale(1.055)" data-module-id="corrugated-roof" data-node-id="corrugated-roof-5" data-layer="background"><g><polygon points="92,96 109,104 92,112 75,104" fill="#8a7869" stroke="#2f241f" stroke-width="1.4" stroke-linejoin="round"/><line x1="83.5" y1="101.33333333333333" x2="88.6" y2="106" stroke="#65564b" stroke-width="1"/><line x1="89.16666666666667" y1="100" x2="94.42857142857143" y2="105.6" stroke="#65564b" stroke-width="1"/><line x1="97.66666666666667" y1="100.8" x2="102" y2="106.28571428571429" stroke="#65564b" stroke-width="1"/></g></g><g id="placement-barraco-roof-patch-4" transform="translate(16 -3) scale(1.028)" data-module-id="barraco-roof-patch" data-node-id="barraco-roof-patch-4" data-layer="midground"><g><polygon points="84,96 99,102 84,108 69,102" fill="#8a7869" stroke="#2f241f" stroke-width="1.4" stroke-linejoin="round"/><line x1="76.5" y1="100" x2="81" y2="103.5" stroke="#65564b" stroke-width="1"/><line x1="81.5" y1="99" x2="86.14285714285714" y2="103.2" stroke="#65564b" stroke-width="1"/><line x1="89" y1="99.6" x2="92.82352941176471" y2="103.71428571428571" stroke="#65564b" stroke-width="1"/></g><g><polygon points="108,91 120,96 108,101 96,96" fill="#725d52" stroke="#2f241f" stroke-width="1.4" stroke-linejoin="round"/><line x1="102" y1="94.33333333333333" x2="105.6" y2="97.25" stroke="#65564b" stroke-width="1"/><line x1="106" y1="93.5" x2="109.71428571428571" y2="97" stroke="#65564b" stroke-width="1"/><line x1="112" y1="94" x2="115.05882352941177" y2="97.42857142857143" stroke="#65564b" stroke-width="1"/></g><g><polygon points="98,106 114,110 111,118 95,114" fill="#8b7d58" stroke="#2f241f" stroke-width="1.2" stroke-linejoin="round"/><line x1="101" y1="108" x2="98" y2="115" stroke="#3f5144" stroke-width="1"/><line x1="106" y1="110" x2="104" y2="117" stroke="#3f5144" stroke-width="1"/></g></g><g id="placement-barraco-corner-3" transform="translate(6 -2) scale(0.994)" data-module-id="barraco-corner" data-node-id="barraco-corner-3" data-layer="midground"><g><polygon points="92,86 112,97 92,108 72,97" fill="#c8b7a8" stroke="#2f241f" stroke-width="1.8" stroke-linejoin="round"/><polygon points="72,97 92,108 92,136 72,125" fill="#776257" stroke="#2f241f" stroke-width="1.8" stroke-linejoin="round"/><polygon points="92,86 112,97 112,125 92,114" fill="#8b7568" stroke="#2f241f" stroke-width="1.8" stroke-linejoin="round"/></g><g><polygon points="92,76 114,84 92,92 70,84" fill="#8a7869" stroke="#2f241f" stroke-width="1.4" stroke-linejoin="round"/><line x1="81" y1="81.33333333333333" x2="87.6" y2="86" stroke="#65564b" stroke-width="1"/><line x1="88.33333333333333" y1="80" x2="95.14285714285714" y2="85.6" stroke="#65564b" stroke-width="1"/><line x1="99.33333333333333" y1="80.8" x2="104.94117647058823" y2="86.28571428571429" stroke="#65564b" stroke-width="1"/></g><g><line x1="110" y1="88" x2="110" y2="110" stroke="#74655a" stroke-width="2.2" stroke-linecap="round"/><line x1="110" y1="90" x2="116" y2="88" stroke="#74655a" stroke-width="2.2" stroke-linecap="round"/><line x1="110" y1="107" x2="115" y2="112" stroke="#74655a" stroke-width="2.2" stroke-linecap="round"/></g><g><ellipse cx="78" cy="88" rx="10" ry="4.5" fill="#314b67" opacity="0.28"/><rect x="71" y="74" width="14" height="11" fill="#3f6790" stroke="#2f241f" stroke-width="1.3" rx="2"/><ellipse cx="78" cy="74" rx="7" ry="2.2" fill="#6a97be" stroke="#2f241f" stroke-width="1"/></g></g><g id="placement-barraco-stacked-2" transform="translate(20 1) scale(1.007)" data-module-id="barraco-stacked" data-node-id="barraco-stacked-2" data-layer="foreground"><g><polygon points="86,96 107,105 86,114 65,105" fill="#baa694" stroke="#2f241f" stroke-width="1.8" stroke-linejoin="round"/><polygon points="65,105 86,114 86,136 65,127" fill="#725e52" stroke="#2f241f" stroke-width="1.8" stroke-linejoin="round"/><polygon points="86,96 107,105 107,127 86,118" fill="#816c60" stroke="#2f241f" stroke-width="1.8" stroke-linejoin="round"/></g><g><polygon points="108,76 124,83 108,90 92,83" fill="#d5c3b4" stroke="#2f241f" stroke-width="1.8" stroke-linejoin="round"/><polygon points="92,83 108,90 108,112 92,105" fill="#886f61" stroke="#2f241f" stroke-width="1.8" stroke-linejoin="round"/><polygon points="108,76 124,83 124,105 108,98" fill="#997d6d" stroke="#2f241f" stroke-width="1.8" stroke-linejoin="round"/></g><g><polygon points="108,68 123,74 108,80 93,74" fill="#8a7869" stroke="#2f241f" stroke-width="1.4" stroke-linejoin="round"/><line x1="100.5" y1="72" x2="105" y2="75.5" stroke="#65564b" stroke-width="1"/><line x1="105.5" y1="71" x2="110.14285714285714" y2="75.2" stroke="#65564b" stroke-width="1"/><line x1="113" y1="71.6" x2="116.82352941176471" y2="75.71428571428571" stroke="#65564b" stroke-width="1"/></g><g><polygon points="62,98 70,100 70,105 62,103" fill="#78685d" stroke="#2f241f" stroke-width="1.1" stroke-linejoin="round"/><polygon points="67,102 75,104 75,109 67,107" fill="#78685d" stroke="#2f241f" stroke-width="1.1" stroke-linejoin="round"/><polygon points="72,106 80,108 80,113 72,111" fill="#78685d" stroke="#2f241f" stroke-width="1.1" stroke-linejoin="round"/><polygon points="77,110 85,112 85,117 77,115" fill="#78685d" stroke="#2f241f" stroke-width="1.1" stroke-linejoin="round"/></g></g><g id="placement-barraco-unit-1" transform="translate(3 7) scale(1.044)" data-module-id="barraco-unit" data-node-id="barraco-unit-1" data-layer="foreground"><g><polygon points="92,90 116,99 92,108 68,99" fill="#c5b59f" stroke="#2f241f" stroke-width="1.8" stroke-linejoin="round"/><polygon points="68,99 92,108 92,134 68,125" fill="#7a6558" stroke="#2f241f" stroke-width="1.8" stroke-linejoin="round"/><polygon points="92,90 116,99 116,125 92,116" fill="#8a7466" stroke="#2f241f" stroke-width="1.8" stroke-linejoin="round"/></g><g><polygon points="92,79 116,88 92,97 68,88" fill="#8a7869" stroke="#2f241f" stroke-width="1.4" stroke-linejoin="round"/><line x1="80" y1="85" x2="87.2" y2="90.25" stroke="#65564b" stroke-width="1"/><line x1="88" y1="83.5" x2="95.42857142857143" y2="89.8" stroke="#65564b" stroke-width="1"/><line x1="100" y1="84.4" x2="106.11764705882354" y2="90.57142857142857" stroke="#65564b" stroke-width="1"/></g><g><polygon points="78,100 96,104 93,112 75,108" fill="#567362" stroke="#2f241f" stroke-width="1.2" stroke-linejoin="round"/><line x1="81" y1="102" x2="78" y2="109" stroke="#3f5144" stroke-width="1"/><line x1="87" y1="104" x2="85" y2="111" stroke="#3f5144" stroke-width="1"/></g></g><g id="placement-side-wall-6" transform="translate(26 -17) scale(1.005)" data-module-id="side-wall" data-node-id="side-wall-6" data-layer="overlay"><polygon points="80,86 106,94 106,124 80,116" fill="#796d63" stroke="#2f241f" stroke-width="1.4" stroke-linejoin="round"/></g></svg>
