<svg xmlns="http://www.w3.org/2000/svg" viewBox="0 0 192 160" fill="none"><g id="placement-anchor-shadow-2" transform="translate(-5 -5) scale(1.029)" data-module-id="anchor-shadow" data-node-id="anchor-shadow-2" data-layer="midground"></g><g id="placement-house-simple-core-1" transform="translate(0 3) scale(1.007)" data-module-id="house-simple-core" data-node-id="house-simple-core-1" data-layer="foreground"><g><polygon points="92,100 116,110 92,120 68,110" fill="#cfba9f" stroke="#2f241f" stroke-width="1.8" stroke-linejoin="round"/><polygon points="68,110 92,120 92,142 68,132" fill="#7a614c" stroke="#2f241f" stroke-width="1.8" stroke-linejoin="round"/><polygon points="92,100 116,110 116,132 92,122" fill="#91745d" stroke="#2f241f" stroke-width="1.8" stroke-linejoin="round"/></g><g><polygon points="92,94 111,100 92,106 73,100" fill="#8c7259" stroke="#2f241f" stroke-width="1.4" stroke-linejoin="round"/><line x1="82.5" y1="98" x2="88.2" y2="101.5" stroke="#65564b" stroke-width="1"/><line x1="88.83333333333333" y1="97" x2="94.71428571428571" y2="101.2" stroke="#65564b" stroke-width="1"/><line x1="98.33333333333333" y1="97.6" x2="103.17647058823529" y2="101.71428571428571" stroke="#65564b" stroke-width="1"/></g><rect x="86" y="108" width="12" height="14" fill="#f2eadf" rx="1"/><polygon points="72,111 80,107 80,114 72,118" fill="#dcc6ab" stroke="#2f241f" stroke-width="1.1" stroke-linejoin="round"/><polygon points="104,110 112,114 112,121 104,117" fill="#dcc6ab" stroke="#2f241f" stroke-width="1.1" stroke-linejoin="round"/></g><g id="placement-house-simple-core-3" transform="translate(1 -13) scale(1.022)" data-module-id="house-simple-core" data-node-id="house-simple-core-3" data-layer="overlay"><g><polygon points="92,100 116,110 92,120 68,110" fill="#cfba9f" stroke="#2f241f" stroke-width="1.8" stroke-linejoin="round"/><polygon points="68,110 92,120 92,142 68,132" fill="#7a614c" stroke="#2f241f" stroke-width="1.8" stroke-linejoin="round"/><polygon points="92,100 116,110 116,132 92,122" fill="#91745d" stroke="#2f241f" stroke-width="1.8" stroke-linejoin="round"/></g><g><polygon points="92,94 111,100 92,106 73,100" fill="#8c7259" stroke="#2f241f" stroke-width="1.4" stroke-linejoin="round"/><line x1="82.5" y1="98" x2="88.2" y2="101.5" stroke="#65564b" stroke-width="1"/><line x1="88.83333333333333" y1="97" x2="94.71428571428571" y2="101.2" stroke="#65564b" stroke-width="1"/><line x1="98.33333333333333" y1="97.6" x2="103.17647058823529" y2="101.71428571428571" stroke="#65564b" stroke-width="1"/></g><rect x="86" y="108" width="12" height="14" fill="#f2eadf" rx="1"/><polygon points="72,111 80,107 80,114 72,118" fill="#dcc6ab" stroke="#2f241f" stroke-width="1.1" stroke-linejoin="round"/><polygon points="104,110 112,114 112,121 104,117" fill="#dcc6ab" stroke="#2f241f" stroke-width="1.1" stroke-linejoin="round"/></g></svg>
