<svg xmlns="http://www.w3.org/2000/svg" viewBox="0 0 192 160" fill="none"><g id="placement-anchor-shadow-2" transform="translate(-5 -5) scale(1.005)" data-module-id="anchor-shadow" data-node-id="anchor-shadow-2" data-layer="midground"></g><g id="placement-house-wealthy-core-1" transform="translate(-1 3) scale(1.013)" data-module-id="house-wealthy-core" data-node-id="house-wealthy-core-1" data-layer="foreground"><g><polygon points="88,100 112,110 88,120 64,110" fill="#d9ddd9" stroke="#2f241f" stroke-width="1.8" stroke-linejoin="round"/><polygon points="64,110 88,120 88,142 64,132" fill="#798a82" stroke="#2f241f" stroke-width="1.8" stroke-linejoin="round"/><polygon points="88,100 112,110 112,132 88,122" fill="#8f9f96" stroke="#2f241f" stroke-width="1.8" stroke-linejoin="round"/></g><g><polygon points="112,94 123,100 112,106 101,100" fill="#edf1ec" stroke="#2f241f" stroke-width="1.8" stroke-linejoin="round"/><polygon points="101,100 112,106 112,124 101,118" fill="#98a79f" stroke="#2f241f" stroke-width="1.8" stroke-linejoin="round"/><polygon points="112,94 123,100 123,118 112,112" fill="#adbab2" stroke="#2f241f" stroke-width="1.8" stroke-linejoin="round"/></g><rect x="74" y="108" width="20" height="12" fill="#d5eff5" rx="1.5"/><rect x="98" y="100" width="18" height="12" fill="#d5eff5" rx="1.5"/><g><polygon points="82,112 102,116 99,124 79,120" fill="#cab795" stroke="#2f241f" stroke-width="1.2" stroke-linejoin="round"/><line x1="85" y1="114" x2="82" y2="121" stroke="#3f5144" stroke-width="1"/><line x1="92" y1="116" x2="90" y2="123" stroke="#3f5144" stroke-width="1"/></g><rect x="68" y="122" width="24" height="4" fill="#7ea47c" rx="2" opacity="0.8"/></g><g id="placement-house-wealthy-core-3" transform="translate(1 -11) scale(0.998)" data-module-id="house-wealthy-core" data-node-id="house-wealthy-core-3" data-layer="overlay"><g><polygon points="88,100 112,110 88,120 64,110" fill="#d9ddd9" stroke="#2f241f" stroke-width="1.8" stroke-linejoin="round"/><polygon points="64,110 88,120 88,142 64,132" fill="#798a82" stroke="#2f241f" stroke-width="1.8" stroke-linejoin="round"/><polygon points="88,100 112,110 112,132 88,122" fill="#8f9f96" stroke="#2f241f" stroke-width="1.8" stroke-linejoin="round"/></g><g><polygon points="112,94 123,100 112,106 101,100" fill="#edf1ec" stroke="#2f241f" stroke-width="1.8" stroke-linejoin="round"/><polygon points="101,100 112,106 112,124 101,118" fill="#98a79f" stroke="#2f241f" stroke-width="1.8" stroke-linejoin="round"/><polygon points="112,94 123,100 123,118 112,112" fill="#adbab2" stroke="#2f241f" stroke-width="1.8" stroke-linejoin="round"/></g><rect x="74" y="108" width="20" height="12" fill="#d5eff5" rx="1.5"/><rect x="98" y="100" width="18" height="12" fill="#d5eff5" rx="1.5"/><g><polygon points="82,112 102,116 99,124 79,120" fill="#cab795" stroke="#2f241f" stroke-width="1.2" stroke-linejoin="round"/><line x1="85" y1="114" x2="82" y2="121" stroke="#3f5144" stroke-width="1"/><line x1="92" y1="116" x2="90" y2="123" stroke="#3f5144" stroke-width="1"/></g><rect x="68" y="122" width="24" height="4" fill="#7ea47c" rx="2" opacity="0.8"/></g></svg>
