<svg xmlns="http://www.w3.org/2000/svg" viewBox="0 0 192 160" fill="none"><g id="placement-anchor-shadow-3" transform="translate(-7 -3) scale(0.981)" data-module-id="anchor-shadow" data-node-id="anchor-shadow-3" data-layer="background"></g><g id="placement-container-stack-2" transform="translate(11 2) scale(0.985)" data-module-id="container-stack" data-node-id="container-stack-2" data-layer="midground"><rect x="68" y="116" width="18" height="8" fill="#c36f45" rx="1"/><rect x="86" y="120" width="18" height="8" fill="#4e7fa3" rx="1"/><rect x="104" y="124" width="18" height="8" fill="#8c9da7" rx="1"/><line x1="110" y1="109" x2="124" y2="92" stroke="#6f8ca1" stroke-width="2"/><line x1="124" y1="92" x2="128" y2="94" stroke="#6f8ca1" stroke-width="2"/></g><g id="placement-dock-warehouse-1" transform="translate(-4 3) scale(0.993)" data-module-id="dock-warehouse" data-node-id="dock-warehouse-1" data-layer="foreground"><g><polygon points="94,98 127,110 94,122 61,110" fill="#aebcc8" stroke="#2f241f" stroke-width="1.8" stroke-linejoin="round"/><polygon points="61,110 94,122 94,144 61,132" fill="#5e7384" stroke="#2f241f" stroke-width="1.8" stroke-linejoin="round"/><polygon points="94,98 127,110 127,132 94,120" fill="#6c8394" stroke="#2f241f" stroke-width="1.8" stroke-linejoin="round"/></g><rect x="76" y="108" width="18" height="12" fill="#23313b" rx="1"/><rect x="98" y="111" width="20" height="10" fill="#23313b" rx="1"/><line x1="68" y1="121" x2="122" y2="121" stroke="#7ec5eb" stroke-width="2.2"/></g><g id="placement-dock-warehouse-4" transform="translate(14 -7) scale(1.034)" data-module-id="dock-warehouse" data-node-id="dock-warehouse-4" data-layer="overlay"><g><polygon points="94,98 127,110 94,122 61,110" fill="#aebcc8" stroke="#2f241f" stroke-width="1.8" stroke-linejoin="round"/><polygon points="61,110 94,122 94,144 61,132" fill="#5e7384" stroke="#2f241f" stroke-width="1.8" stroke-linejoin="round"/><polygon points="94,98 127,110 127,132 94,120" fill="#6c8394" stroke="#2f241f" stroke-width="1.8" stroke-linejoin="round"/></g><rect x="76" y="108" width="18" height="12" fill="#23313b" rx="1"/><rect x="98" y="111" width="20" height="10" fill="#23313b" rx="1"/><line x1="68" y1="121" x2="122" y2="121" stroke="#7ec5eb" stroke-width="2.2"/></g></svg>
