<svg xmlns="http://www.w3.org/2000/svg" viewBox="0 0 160 160" fill="none"><g><ellipse cx="90" cy="126" rx="34" ry="10" fill="rgba(23, 31, 38, 0.2)"/><polygon points="99,30 107,34 99,38 91,34" fill="#77A8C3" stroke="#22303A" stroke-width="2"/><rect x="96" y="34" width="6" height="12" rx="1.5" fill="#77A8C3" stroke="#22303A" stroke-width="1.5"/><path d="M44 86 L57 76 L57 92" stroke="#22303A" stroke-width="2" fill="none" stroke-linecap="round"/><line x1="52" y1="83" x2="58" y2="80" stroke="#22303A" stroke-width="1.5"/><line x1="50" y1="87" x2="56" y2="84" stroke="#22303A" stroke-width="1.5"/><line x1="48" y1="91" x2="54" y2="88" stroke="#22303A" stroke-width="1.5"/><rect x="36" y="93" width="18" height="8" rx="1.5" fill="#6D8D6B" opacity="0.85"/><g><polygon points="52,44 82,52 82,86 52,78" fill="#7D7268" stroke="#22303A" stroke-width="2"/><polygon points="112,44 82,52 82,86 112,78" fill="#BEB7AF" stroke="#22303A" stroke-width="2"/><polygon points="82,36 112,44 82,52 52,44" fill="#6F777D" stroke="#22303A" stroke-width="2"/><rect x="74" y="60" width="7" height="6" rx="1.5" fill="#CFE6EF"/><rect x="85" y="60" width="7" height="6" rx="1.5" fill="#CFE6EF"/></g><g><polygon points="34,54 56,60 56,84 34,78" fill="#998E84" stroke="#22303A" stroke-width="2"/><polygon points="78,54 56,60 56,84 78,78" fill="#9C6751" stroke="#22303A" stroke-width="2"/><polygon points="56,48 78,54 56,60 34,54" fill="#8A5D4A" stroke="#22303A" stroke-width="2"/><rect x="48" y="68" width="7" height="6" rx="1.5" fill="#CFE6EF"/><rect x="59" y="68" width="7" height="6" rx="1.5" fill="#CFE6EF"/></g><g><polygon points="88,57.5 108,63 108,85 88,79.5" fill="#7D7268" stroke="#22303A" stroke-width="2"/><polygon points="128,57.5 108,63 108,85 128,79.5" fill="#998E84" stroke="#22303A" stroke-width="2"/><polygon points="108,52 128,57.5 108,63 88,57.5" fill="#8A5D4A" stroke="#22303A" stroke-width="2"/><rect x="100" y="71" width="7" height="6" rx="1.5" fill="#CFE6EF"/><rect x="111" y="71" width="7" height="6" rx="1.5" fill="#CFE6EF"/></g><g><polygon points="54,65 72,70 72,88 54,83" fill="#998E84" stroke="#22303A" stroke-width="2"/><polygon points="90,65 72,70 72,88 90,83" fill="#BEB7AF" stroke="#22303A" stroke-width="2"/><polygon points="72,60 90,65 72,70 54,65" fill="#6F777D" stroke="#22303A" stroke-width="2"/><rect x="64" y="78" width="7" height="6" rx="1.5" fill="#CFE6EF"/><rect x="75" y="78" width="7" height="6" rx="1.5" fill="#CFE6EF"/></g><g><polygon points="78,68 96,73 96,89 78,84" fill="#7D7268" stroke="#22303A" stroke-width="2"/><polygon points="114,68 96,73 96,89 114,84" fill="#9C6751" stroke="#22303A" stroke-width="2"/><polygon points="96,63 114,68 96,73 78,68" fill="#9C6751" stroke="#22303A" stroke-width="2"/><rect x="88" y="81" width="7" height="6" rx="1.5" fill="#CFE6EF"/><rect x="99" y="81" width="7" height="6" rx="1.5" fill="#CFE6EF"/></g><g><polygon points="32,71.5 48,76 48,90 32,85.5" fill="#998E84" stroke="#22303A" stroke-width="2"/><polygon points="64,71.5 48,76 48,90 64,85.5" fill="#998E84" stroke="#22303A" stroke-width="2"/><polygon points="48,67 64,71.5 48,76 32,71.5" fill="#8A5D4A" stroke="#22303A" stroke-width="2"/><rect x="40" y="84" width="7" height="6" rx="1.5" fill="#CFE6EF"/><rect x="51" y="84" width="7" height="6" rx="1.5" fill="#CFE6EF"/></g></g></svg>
