<svg xmlns="http://www.w3.org/2000/svg" viewBox="0 0 192 160" fill="none"><g id="placement-anchor-shadow-2" transform="translate(-6 -5) scale(1.009)" data-module-id="anchor-shadow" data-node-id="anchor-shadow-2" data-layer="midground"></g><g id="placement-tower-modern-core-1" transform="translate(-1 4) scale(1.018)" data-module-id="tower-modern-core" data-node-id="tower-modern-core-1" data-layer="foreground"><g><polygon points="92,64 112,73 92,82 72,73" fill="#c7d2db" stroke="#2f241f" stroke-width="1.8" stroke-linejoin="round"/><polygon points="72,73 92,82 92,138 72,129" fill="#607786" stroke="#2f241f" stroke-width="1.8" stroke-linejoin="round"/><polygon points="92,64 112,73 112,129 92,120" fill="#6f8999" stroke="#2f241f" stroke-width="1.8" stroke-linejoin="round"/></g><polygon points="82,72 90,76 90,83 82,79" fill="#96d0ea" stroke="#2f241f" stroke-width="1.1" stroke-linejoin="round"/><polygon points="96,72 104,76 104,83 96,79" fill="#96d0ea" stroke="#2f241f" stroke-width="1.1" stroke-linejoin="round"/><polygon points="82,84 90,88 90,95 82,91" fill="#96d0ea" stroke="#2f241f" stroke-width="1.1" stroke-linejoin="round"/><polygon points="96,84 104,88 104,95 96,91" fill="#96d0ea" stroke="#2f241f" stroke-width="1.1" stroke-linejoin="round"/><polygon points="82,96 90,100 90,107 82,103" fill="#96d0ea" stroke="#2f241f" stroke-width="1.1" stroke-linejoin="round"/><polygon points="96,96 104,100 104,107 96,103" fill="#96d0ea" stroke="#2f241f" stroke-width="1.1" stroke-linejoin="round"/><polygon points="82,108 90,112 90,119 82,115" fill="#96d0ea" stroke="#2f241f" stroke-width="1.1" stroke-linejoin="round"/><polygon points="96,108 104,112 104,119 96,115" fill="#96d0ea" stroke="#2f241f" stroke-width="1.1" stroke-linejoin="round"/><rect x="76" y="88" width="32" height="6" fill="#7fe2ff" rx="2" opacity="0.85"/><rect x="86" y="110" width="12" height="10" fill="#d2eef8" rx="1"/></g><g id="placement-tower-modern-core-3" transform="translate(1 -11) scale(0.995)" data-module-id="tower-modern-core" data-node-id="tower-modern-core-3" data-layer="overlay"><g><polygon points="92,64 112,73 92,82 72,73" fill="#c7d2db" stroke="#2f241f" stroke-width="1.8" stroke-linejoin="round"/><polygon points="72,73 92,82 92,138 72,129" fill="#607786" stroke="#2f241f" stroke-width="1.8" stroke-linejoin="round"/><polygon points="92,64 112,73 112,129 92,120" fill="#6f8999" stroke="#2f241f" stroke-width="1.8" stroke-linejoin="round"/></g><polygon points="82,72 90,76 90,83 82,79" fill="#96d0ea" stroke="#2f241f" stroke-width="1.1" stroke-linejoin="round"/><polygon points="96,72 104,76 104,83 96,79" fill="#96d0ea" stroke="#2f241f" stroke-width="1.1" stroke-linejoin="round"/><polygon points="82,84 90,88 90,95 82,91" fill="#96d0ea" stroke="#2f241f" stroke-width="1.1" stroke-linejoin="round"/><polygon points="96,84 104,88 104,95 96,91" fill="#96d0ea" stroke="#2f241f" stroke-width="1.1" stroke-linejoin="round"/><polygon points="82,96 90,100 90,107 82,103" fill="#96d0ea" stroke="#2f241f" stroke-width="1.1" stroke-linejoin="round"/><polygon points="96,96 104,100 104,107 96,103" fill="#96d0ea" stroke="#2f241f" stroke-width="1.1" stroke-linejoin="round"/><polygon points="82,108 90,112 90,119 82,115" fill="#96d0ea" stroke="#2f241f" stroke-width="1.1" stroke-linejoin="round"/><polygon points="96,108 104,112 104,119 96,115" fill="#96d0ea" stroke="#2f241f" stroke-width="1.1" stroke-linejoin="round"/><rect x="76" y="88" width="32" height="6" fill="#7fe2ff" rx="2" opacity="0.85"/><rect x="86" y="110" width="12" height="10" fill="#d2eef8" rx="1"/></g></svg>
