<svg xmlns="http://www.w3.org/2000/svg" viewBox="0 0 192 160" fill="none"><g id="placement-anchor-shadow-2" transform="translate(-5 -4) scale(0.993)" data-module-id="anchor-shadow" data-node-id="anchor-shadow-2" data-layer="midground"></g><g id="placement-commercial-simple-core-1" transform="translate(1 4) scale(1.01)" data-module-id="commercial-simple-core" data-node-id="commercial-simple-core-1" data-layer="foreground"><g><polygon points="92,82 118,93 92,104 66,93" fill="#c4b29f" stroke="#2f241f" stroke-width="1.8" stroke-linejoin="round"/><polygon points="66,93 92,104 92,142 66,131" fill="#705949" stroke="#2f241f" stroke-width="1.8" stroke-linejoin="round"/><polygon points="92,82 118,93 118,131 92,120" fill="#846957" stroke="#2f241f" stroke-width="1.8" stroke-linejoin="round"/></g><polygon points="76,88 84,92 84,99 76,95" fill="#dbcab5" stroke="#2f241f" stroke-width="1.1" stroke-linejoin="round"/><polygon points="90,88 98,92 98,99 90,95" fill="#dbcab5" stroke="#2f241f" stroke-width="1.1" stroke-linejoin="round"/><polygon points="104,88 112,92 112,99 104,95" fill="#dbcab5" stroke="#2f241f" stroke-width="1.1" stroke-linejoin="round"/><polygon points="76,100 84,104 84,111 76,107" fill="#dbcab5" stroke="#2f241f" stroke-width="1.1" stroke-linejoin="round"/><polygon points="90,100 98,104 98,111 90,107" fill="#dbcab5" stroke="#2f241f" stroke-width="1.1" stroke-linejoin="round"/><polygon points="104,100 112,104 112,111 104,107" fill="#dbcab5" stroke="#2f241f" stroke-width="1.1" stroke-linejoin="round"/><g><polygon points="72,104 106,108 103,116 69,112" fill="#6b5a49" stroke="#2f241f" stroke-width="1.2" stroke-linejoin="round"/><line x1="75" y1="106" x2="72" y2="113" stroke="#3f5144" stroke-width="1"/><line x1="89" y1="108" x2="87" y2="115" stroke="#3f5144" stroke-width="1"/></g><rect x="84" y="108" width="18" height="12" fill="#2e241d" rx="1"/></g><g id="placement-commercial-simple-core-3" transform="translate(0 -14) scale(1.026)" data-module-id="commercial-simple-core" data-node-id="commercial-simple-core-3" data-layer="overlay"><g><polygon points="92,82 118,93 92,104 66,93" fill="#c4b29f" stroke="#2f241f" stroke-width="1.8" stroke-linejoin="round"/><polygon points="66,93 92,104 92,142 66,131" fill="#705949" stroke="#2f241f" stroke-width="1.8" stroke-linejoin="round"/><polygon points="92,82 118,93 118,131 92,120" fill="#846957" stroke="#2f241f" stroke-width="1.8" stroke-linejoin="round"/></g><polygon points="76,88 84,92 84,99 76,95" fill="#dbcab5" stroke="#2f241f" stroke-width="1.1" stroke-linejoin="round"/><polygon points="90,88 98,92 98,99 90,95" fill="#dbcab5" stroke="#2f241f" stroke-width="1.1" stroke-linejoin="round"/><polygon points="104,88 112,92 112,99 104,95" fill="#dbcab5" stroke="#2f241f" stroke-width="1.1" stroke-linejoin="round"/><polygon points="76,100 84,104 84,111 76,107" fill="#dbcab5" stroke="#2f241f" stroke-width="1.1" stroke-linejoin="round"/><polygon points="90,100 98,104 98,111 90,107" fill="#dbcab5" stroke="#2f241f" stroke-width="1.1" stroke-linejoin="round"/><polygon points="104,100 112,104 112,111 104,107" fill="#dbcab5" stroke="#2f241f" stroke-width="1.1" stroke-linejoin="round"/><g><polygon points="72,104 106,108 103,116 69,112" fill="#6b5a49" stroke="#2f241f" stroke-width="1.2" stroke-linejoin="round"/><line x1="75" y1="106" x2="72" y2="113" stroke="#3f5144" stroke-width="1"/><line x1="89" y1="108" x2="87" y2="115" stroke="#3f5144" stroke-width="1"/></g><rect x="84" y="108" width="18" height="12" fill="#2e241d" rx="1"/></g></svg>
