<svg xmlns="http://www.w3.org/2000/svg" viewBox="0 0 192 160" fill="none"><g id="placement-anchor-shadow-2" transform="translate(-4 -6) scale(1.014)" data-module-id="anchor-shadow" data-node-id="anchor-shadow-2" data-layer="midground"></g><g id="placement-tower-simple-core-1" transform="translate(2 4) scale(1)" data-module-id="tower-simple-core" data-node-id="tower-simple-core-1" data-layer="foreground"><g><polygon points="92,66 112,75 92,84 72,75" fill="#cfc9c1" stroke="#2f241f" stroke-width="1.8" stroke-linejoin="round"/><polygon points="72,75 92,84 92,138 72,129" fill="#747067" stroke="#2f241f" stroke-width="1.8" stroke-linejoin="round"/><polygon points="92,66 112,75 112,129 92,120" fill="#88837b" stroke="#2f241f" stroke-width="1.8" stroke-linejoin="round"/></g><polygon points="82,74 90,78 90,85 82,81" fill="#ddd4c8" stroke="#2f241f" stroke-width="1.1" stroke-linejoin="round"/><polygon points="96,74 104,78 104,85 96,81" fill="#ddd4c8" stroke="#2f241f" stroke-width="1.1" stroke-linejoin="round"/><polygon points="82,86 90,90 90,97 82,93" fill="#ddd4c8" stroke="#2f241f" stroke-width="1.1" stroke-linejoin="round"/><polygon points="96,86 104,90 104,97 96,93" fill="#ddd4c8" stroke="#2f241f" stroke-width="1.1" stroke-linejoin="round"/><polygon points="82,98 90,102 90,109 82,105" fill="#ddd4c8" stroke="#2f241f" stroke-width="1.1" stroke-linejoin="round"/><polygon points="96,98 104,102 104,109 96,105" fill="#ddd4c8" stroke="#2f241f" stroke-width="1.1" stroke-linejoin="round"/><polygon points="82,110 90,114 90,121 82,117" fill="#ddd4c8" stroke="#2f241f" stroke-width="1.1" stroke-linejoin="round"/><polygon points="96,110 104,114 104,121 96,117" fill="#ddd4c8" stroke="#2f241f" stroke-width="1.1" stroke-linejoin="round"/><rect x="86" y="110" width="12" height="10" fill="#e6d8c8" rx="1"/></g><g id="placement-tower-simple-core-3" transform="translate(2 -10) scale(1.01)" data-module-id="tower-simple-core" data-node-id="tower-simple-core-3" data-layer="overlay"><g><polygon points="92,66 112,75 92,84 72,75" fill="#cfc9c1" stroke="#2f241f" stroke-width="1.8" stroke-linejoin="round"/><polygon points="72,75 92,84 92,138 72,129" fill="#747067" stroke="#2f241f" stroke-width="1.8" stroke-linejoin="round"/><polygon points="92,66 112,75 112,129 92,120" fill="#88837b" stroke="#2f241f" stroke-width="1.8" stroke-linejoin="round"/></g><polygon points="82,74 90,78 90,85 82,81" fill="#ddd4c8" stroke="#2f241f" stroke-width="1.1" stroke-linejoin="round"/><polygon points="96,74 104,78 104,85 96,81" fill="#ddd4c8" stroke="#2f241f" stroke-width="1.1" stroke-linejoin="round"/><polygon points="82,86 90,90 90,97 82,93" fill="#ddd4c8" stroke="#2f241f" stroke-width="1.1" stroke-linejoin="round"/><polygon points="96,86 104,90 104,97 96,93" fill="#ddd4c8" stroke="#2f241f" stroke-width="1.1" stroke-linejoin="round"/><polygon points="82,98 90,102 90,109 82,105" fill="#ddd4c8" stroke="#2f241f" stroke-width="1.1" stroke-linejoin="round"/><polygon points="96,98 104,102 104,109 96,105" fill="#ddd4c8" stroke="#2f241f" stroke-width="1.1" stroke-linejoin="round"/><polygon points="82,110 90,114 90,121 82,117" fill="#ddd4c8" stroke="#2f241f" stroke-width="1.1" stroke-linejoin="round"/><polygon points="96,110 104,114 104,121 96,117" fill="#ddd4c8" stroke="#2f241f" stroke-width="1.1" stroke-linejoin="round"/><rect x="86" y="110" width="12" height="10" fill="#e6d8c8" rx="1"/></g></svg>
