<svg xmlns="http://www.w3.org/2000/svg" viewBox="0 0 192 160" fill="none"><g id="placement-anchor-shadow-4" transform="translate(9 -8) scale(0.993)" data-module-id="anchor-shadow" data-node-id="anchor-shadow-4" data-layer="background"></g><g id="placement-guard-tower-3" transform="translate(-28 -3) scale(0.996)" data-module-id="guard-tower" data-node-id="guard-tower-3" data-layer="midground"><g><polygon points="118,80 126,85 118,90 110,85" fill="#d1d7dc" stroke="#2f241f" stroke-width="1.8" stroke-linejoin="round"/><polygon points="110,85 118,90 118,118 110,113" fill="#7a848d" stroke="#2f241f" stroke-width="1.8" stroke-linejoin="round"/><polygon points="118,80 126,85 126,113 118,108" fill="#8d98a0" stroke="#2f241f" stroke-width="1.8" stroke-linejoin="round"/></g><rect x="112" y="83" width="14" height="6" fill="#3b4247" rx="1"/></g><g id="placement-prison-wall-2" transform="translate(12 0) scale(1.025)" data-module-id="prison-wall" data-node-id="prison-wall-2" data-layer="foreground"><polygon points="58,104 120,130 120,138 58,112" fill="#7c858f" stroke="#283038" stroke-width="1.4" stroke-linejoin="round"/><line x1="64" y1="106" x2="64" y2="118" stroke="#3a434b" stroke-width="2"/><line x1="76" y1="111" x2="76" y2="123" stroke="#3a434b" stroke-width="2"/><line x1="88" y1="116" x2="88" y2="128" stroke="#3a434b" stroke-width="2"/><line x1="100" y1="121" x2="100" y2="133" stroke="#3a434b" stroke-width="2"/><line x1="112" y1="126" x2="112" y2="138" stroke="#3a434b" stroke-width="2"/></g><g id="placement-prison-core-1" transform="translate(-1 6) scale(1.022)" data-module-id="prison-core" data-node-id="prison-core-1" data-layer="foreground"><g><polygon points="94,96 123,108 94,120 65,108" fill="#c6ccd3" stroke="#2f241f" stroke-width="1.8" stroke-linejoin="round"/><polygon points="65,108 94,120 94,144 65,132" fill="#68727d" stroke="#2f241f" stroke-width="1.8" stroke-linejoin="round"/><polygon points="94,96 123,108 123,132 94,120" fill="#7c8791" stroke="#2f241f" stroke-width="1.8" stroke-linejoin="round"/></g><rect x="78" y="102" width="20" height="20" fill="#293038" rx="1"/><line x1="82" y1="102" x2="82" y2="122" stroke="#78838d" stroke-width="1.2"/><line x1="88" y1="102" x2="88" y2="122" stroke="#78838d" stroke-width="1.2"/><line x1="94" y1="102" x2="94" y2="122" stroke="#78838d" stroke-width="1.2"/><line x1="100" y1="102" x2="100" y2="122" stroke="#78838d" stroke-width="1.2"/><rect x="68" y="96" width="52" height="6" fill="#343b42" rx="1"/></g><g id="placement-prison-core-5" transform="translate(-3 -11) scale(1.028)" data-module-id="prison-core" data-node-id="prison-core-5" data-layer="overlay"><g><polygon points="94,96 123,108 94,120 65,108" fill="#c6ccd3" stroke="#2f241f" stroke-width="1.8" stroke-linejoin="round"/><polygon points="65,108 94,120 94,144 65,132" fill="#68727d" stroke="#2f241f" stroke-width="1.8" stroke-linejoin="round"/><polygon points="94,96 123,108 123,132 94,120" fill="#7c8791" stroke="#2f241f" stroke-width="1.8" stroke-linejoin="round"/></g><rect x="78" y="102" width="20" height="20" fill="#293038" rx="1"/><line x1="82" y1="102" x2="82" y2="122" stroke="#78838d" stroke-width="1.2"/><line x1="88" y1="102" x2="88" y2="122" stroke="#78838d" stroke-width="1.2"/><line x1="94" y1="102" x2="94" y2="122" stroke="#78838d" stroke-width="1.2"/><line x1="100" y1="102" x2="100" y2="122" stroke="#78838d" stroke-width="1.2"/><rect x="68" y="96" width="52" height="6" fill="#343b42" rx="1"/></g></svg>
