<svg xmlns="http://www.w3.org/2000/svg" viewBox="0 0 192 160" fill="none"><g id="placement-anchor-shadow-3" transform="translate(-6 -2) scale(1.002)" data-module-id="anchor-shadow" data-node-id="anchor-shadow-3" data-layer="background"></g><g id="placement-university-wing-2" transform="translate(-10 1) scale(1.004)" data-module-id="university-wing" data-node-id="university-wing-2" data-layer="midground"><g><polygon points="116,94 129,100 116,106 103,100" fill="#e2e0da" stroke="#2f241f" stroke-width="1.8" stroke-linejoin="round"/><polygon points="103,100 116,106 116,122 103,116" fill="#969488" stroke="#2f241f" stroke-width="1.8" stroke-linejoin="round"/><polygon points="116,94 129,100 129,116 116,110" fill="#a9a79b" stroke="#2f241f" stroke-width="1.8" stroke-linejoin="round"/></g><g><polygon points="102,101 120,105 117,113 99,109" fill="#d5d0c4" stroke="#2f241f" stroke-width="1.2" stroke-linejoin="round"/><line x1="105" y1="103" x2="102" y2="110" stroke="#3f5144" stroke-width="1"/><line x1="111" y1="105" x2="109" y2="112" stroke="#3f5144" stroke-width="1"/></g></g><g id="placement-university-core-1" transform="translate(-2 2) scale(1.013)" data-module-id="university-core" data-node-id="university-core-1" data-layer="foreground"><g><polygon points="92,94 122,106 92,118 62,106" fill="#d4d6cf" stroke="#2f241f" stroke-width="1.8" stroke-linejoin="round"/><polygon points="62,106 92,118 92,142 62,130" fill="#818175" stroke="#2f241f" stroke-width="1.8" stroke-linejoin="round"/><polygon points="92,94 122,106 122,130 92,118" fill="#97978b" stroke="#2f241f" stroke-width="1.8" stroke-linejoin="round"/></g><polygon points="68,97 78,101 78,109 68,105" fill="#9ebcd0" stroke="#2f241f" stroke-width="1.1" stroke-linejoin="round"/><polygon points="85,97 95,101 95,109 85,105" fill="#9ebcd0" stroke="#2f241f" stroke-width="1.1" stroke-linejoin="round"/><polygon points="102,97 112,101 112,109 102,105" fill="#9ebcd0" stroke="#2f241f" stroke-width="1.1" stroke-linejoin="round"/><polygon points="68,111 78,115 78,123 68,119" fill="#9ebcd0" stroke="#2f241f" stroke-width="1.1" stroke-linejoin="round"/><polygon points="85,111 95,115 95,123 85,119" fill="#9ebcd0" stroke="#2f241f" stroke-width="1.1" stroke-linejoin="round"/><polygon points="102,111 112,115 112,123 102,119" fill="#9ebcd0" stroke="#2f241f" stroke-width="1.1" stroke-linejoin="round"/><rect x="86" y="104" width="14" height="18" fill="#f0ede4" rx="1"/><rect x="79" y="88" width="26" height="8" fill="#b28f59" rx="2"/></g><g id="placement-university-core-4" transform="translate(13 -6) scale(1.014)" data-module-id="university-core" data-node-id="university-core-4" data-layer="overlay"><g><polygon points="92,94 122,106 92,118 62,106" fill="#d4d6cf" stroke="#2f241f" stroke-width="1.8" stroke-linejoin="round"/><polygon points="62,106 92,118 92,142 62,130" fill="#818175" stroke="#2f241f" stroke-width="1.8" stroke-linejoin="round"/><polygon points="92,94 122,106 122,130 92,118" fill="#97978b" stroke="#2f241f" stroke-width="1.8" stroke-linejoin="round"/></g><polygon points="68,97 78,101 78,109 68,105" fill="#9ebcd0" stroke="#2f241f" stroke-width="1.1" stroke-linejoin="round"/><polygon points="85,97 95,101 95,109 85,105" fill="#9ebcd0" stroke="#2f241f" stroke-width="1.1" stroke-linejoin="round"/><polygon points="102,97 112,101 112,109 102,105" fill="#9ebcd0" stroke="#2f241f" stroke-width="1.1" stroke-linejoin="round"/><polygon points="68,111 78,115 78,123 68,119" fill="#9ebcd0" stroke="#2f241f" stroke-width="1.1" stroke-linejoin="round"/><polygon points="85,111 95,115 95,123 85,119" fill="#9ebcd0" stroke="#2f241f" stroke-width="1.1" stroke-linejoin="round"/><polygon points="102,111 112,115 112,123 102,119" fill="#9ebcd0" stroke="#2f241f" stroke-width="1.1" stroke-linejoin="round"/><rect x="86" y="104" width="14" height="18" fill="#f0ede4" rx="1"/><rect x="79" y="88" width="26" height="8" fill="#b28f59" rx="2"/></g></svg>
