<?xml version="1.0" encoding="UTF-8" standalone="no"?>
<svg
   viewBox="0 0 160 160"
   fill="none"
   version="1.1"
   id="svg30"
   xmlns="http://www.w3.org/2000/svg"
   xmlns:svg="http://www.w3.org/2000/svg">
  <defs
     id="defs34" />
  <g
     id="g28">
    <ellipse
       cx="82"
       cy="126"
       rx="32"
       ry="9"
       fill="rgba(18, 12, 20, 0.14)"
       id="ellipse2" />
    <polygon
       points="46,63 80,72 80,96 46,87"
       fill="#2E2932"
       stroke="#251E29"
       stroke-width="1.75"
       id="polygon4" />
    <polygon
       points="114,63 80,72 80,96 114,87"
       fill="#433C48"
       stroke="#251E29"
       stroke-width="1.75"
       id="polygon6" />
    <polygon
       points="80,54 114,63 80,72 46,63"
       fill="#71435C"
       stroke="#251E29"
       stroke-width="1.75"
       id="polygon8" />
    <rect
       x="48"
       y="86"
       width="64"
       height="8"
       rx="2"
       fill="#65D8FF"
       opacity="0.85"
       id="rect10" />
    <rect
       x="58"
       y="76"
       width="10"
       height="24"
       rx="2"
       fill="#2E2932"
       id="rect12" />
    <rect
       x="92"
       y="76"
       width="10"
       height="24"
       rx="2"
       fill="#2E2932"
       id="rect14" />
    <rect
       x="43"
       y="82"
       width="5"
       height="22"
       rx="1.5"
       fill="#2E2932"
       id="rect16" />
    <rect
       x="112"
       y="82"
       width="5"
       height="22"
       rx="1.5"
       fill="#2E2932"
       id="rect18" />
    <ellipse
       cx="48"
       cy="78"
       rx="5"
       ry="5"
       fill="#E66AF2"
       stroke="#251E29"
       stroke-width="2"
       id="ellipse20" />
    <ellipse
       cx="80"
       cy="66"
       rx="6"
       ry="6"
       fill="#65D8FF"
       stroke="#251E29"
       stroke-width="2"
       id="ellipse22" />
    <ellipse
       cx="112"
       cy="78"
       rx="5"
       ry="5"
       fill="#E66AF2"
       stroke="#251E29"
       stroke-width="2"
       id="ellipse24" />
    <path
       d="M46 88 L114 88"
       stroke="#E66AF2"
       stroke-width="3"
       fill="none"
       stroke-linecap="round"
       id="path26" />
  </g>
</svg>
