<svg xmlns="http://www.w3.org/2000/svg" id="svg30" fill="none" viewBox="0 0 160 160"><g id="g28"><ellipse id="ellipse2" cx="82" cy="126" fill="rgba(18, 12, 20, 0.14)" rx="32" ry="9"/><polygon id="polygon4" fill="#2e2932" stroke="#251e29" stroke-width="1.75" points="46,63 80,72 80,96 46,87"/><polygon id="polygon6" fill="#433c48" stroke="#251e29" stroke-width="1.75" points="114,63 80,72 80,96 114,87"/><polygon id="polygon8" fill="#71435c" stroke="#251e29" stroke-width="1.75" points="80,54 114,63 80,72 46,63"/><rect id="rect10" width="64" height="8" x="48" y="86" fill="#65d8ff" opacity=".85" rx="2"/><rect id="rect12" width="10" height="24" x="58" y="76" fill="#2e2932" rx="2"/><rect id="rect14" width="10" height="24" x="92" y="76" fill="#2e2932" rx="2"/><rect id="rect16" width="5" height="22" x="43" y="82" fill="#2e2932" rx="1.5"/><rect id="rect18" width="5" height="22" x="112" y="82" fill="#2e2932" rx="1.5"/><circle id="ellipse20" cx="48" cy="78" r="5" fill="#e66af2" stroke="#251e29" stroke-width="2"/><circle id="ellipse22" cx="80" cy="66" r="6" fill="#65d8ff" stroke="#251e29" stroke-width="2"/><circle id="ellipse24" cx="112" cy="78" r="5" fill="#e66af2" stroke="#251e29" stroke-width="2"/><path id="path26" fill="none" stroke="#e66af2" stroke-linecap="round" stroke-width="3" d="M46 88h68"/></g></svg>
