<svg xmlns="http://www.w3.org/2000/svg" viewBox="0 0 160 160"><ellipse cx="80" cy="128" rx="40" ry="16" fill="rgba(0,0,0,0.18)"/><polygon points="36,58 80,80 80,108 36,86" fill="#4a3555" /><polygon points="124,58 80,80 80,108 124,86" fill="#694b7b" /><polygon points="80,36 124,58 80,80 36,58" fill="#9f73b6" /><polygon points="80,36 124,58 80,80 36,58" fill="none" stroke="#1d1220" stroke-width="3"/><polygon points="36,58 80,80 80,108 36,86" fill="none" stroke="#1d1220" stroke-width="2.2"/><polygon points="124,58 80,80 80,108 124,86" fill="none" stroke="#1d1220" stroke-width="2.2"/><rect x="48" y="84" width="64" height="12" fill="#241728" /><rect x="60" y="70" width="10" height="28" fill="#8b63a1" /><rect x="90" y="70" width="10" height="28" fill="#8b63a1" /><circle cx="50" cy="68" r="5" fill="#f364ff" /><circle cx="80" cy="58" r="5" fill="#f364ff" /><circle cx="110" cy="68" r="5" fill="#f364ff" /><path d="M48 88 L112 88" stroke="#d15ff1" stroke-width="4" stroke-linecap="round" stroke-linejoin="round" fill="none" /><rect x="72" y="46" width="16" height="16" fill="#f364ff" rx="3"/></svg>
