<svg xmlns="http://www.w3.org/2000/svg" viewBox="0 0 160 160"><ellipse cx="80" cy="128" rx="40" ry="16" fill="rgba(0,0,0,0.18)"/><polygon points="48,60 80,76 80,102 48,86" fill="#563c33" /><polygon points="112,60 80,76 80,102 112,86" fill="#735046" /><polygon points="80,44 112,60 80,76 48,60" fill="#a17361" /><polygon points="80,44 112,60 80,76 48,60" fill="none" stroke="#1b120f" stroke-width="3"/><polygon points="48,60 80,76 80,102 48,86" fill="none" stroke="#1b120f" stroke-width="2.2"/><polygon points="112,60 80,76 80,102 112,86" fill="none" stroke="#1b120f" stroke-width="2.2"/><rect x="62" y="78" width="36" height="18" fill="#2a1d18" /><rect x="74" y="82" width="12" height="14" fill="#8b6554" /><rect x="58" y="82" width="10" height="8" fill="#c56f4d" /><rect x="92" y="82" width="10" height="8" fill="#c56f4d" /><path d="M58 72 L102 72" stroke="#1b120f" stroke-width="2" stroke-linecap="round" stroke-linejoin="round" fill="none" /><path d="M66 56 L76 48" stroke="#1b120f" stroke-width="2" stroke-linecap="round" stroke-linejoin="round" fill="none" /></svg>
