<svg xmlns="http://www.w3.org/2000/svg" viewBox="0 0 160 160"><ellipse cx="80" cy="128" rx="40" ry="16" fill="rgba(0,0,0,0.18)"/><polygon points="46,60 80,78 80,104 46,86" fill="#4d3827" /><polygon points="114,60 80,78 80,104 114,86" fill="#6a4b34" /><polygon points="80,42 114,60 80,78 46,60" fill="#9f744c" /><polygon points="80,42 114,60 80,78 46,60" fill="none" stroke="#19120e" stroke-width="3"/><polygon points="46,60 80,78 80,104 46,86" fill="none" stroke="#19120e" stroke-width="2.2"/><polygon points="114,60 80,78 80,104 114,86" fill="none" stroke="#19120e" stroke-width="2.2"/><rect x="58" y="78" width="44" height="20" fill="#211a14" /><rect x="56" y="74" width="48" height="8" fill="#8b6d4a" /><rect x="66" y="84" width="28" height="10" fill="#1b1712" /><rect x="72" y="86" width="6" height="8" fill="#d58e38" /><rect x="82" y="86" width="6" height="8" fill="#d58e38" /><rect x="92" y="86" width="6" height="8" fill="#d58e38" /><circle cx="108" cy="74" r="5" fill="#d58e38" /></svg>
