<svg xmlns="http://www.w3.org/2000/svg" viewBox="0 0 160 160" fill="none"><g id="boca boca-asset" data-asset-type="boca boca" data-category="poor" data-density="medium-low"><g transform="translate(10 21.67) scale(0.7292)" id="boca boca-render-root"><g id="placement-awning-3" transform="translate(0 9) scale(1.039)" data-module-id="awning" data-node-id="awning-3" data-layer="background"><g><polygon points="80,98 104,102 101,110 77,106" fill="#567362" stroke="#2f241f" stroke-width="1.2" stroke-linejoin="round"/><line x1="83" y1="100" x2="80" y2="107" stroke="#3f5144" stroke-width="1"/><line x1="92" y1="102" x2="90" y2="109" stroke="#3f5144" stroke-width="1"/></g></g><g id="placement-boca-guarded-entry-2" transform="translate(10 0) scale(0.979)" data-module-id="boca-guarded-entry" data-node-id="boca-guarded-entry-2" data-layer="midground"><g><polygon points="94,102 108,110 94,118 80,110" fill="#b08968" stroke="#2f241f" stroke-width="1.8" stroke-linejoin="round"/><polygon points="80,110 94,118 94,138 80,130" fill="#614633" stroke="#2f241f" stroke-width="1.8" stroke-linejoin="round"/><polygon points="94,102 108,110 108,130 94,122" fill="#735441" stroke="#2f241f" stroke-width="1.8" stroke-linejoin="round"/></g><rect x="88" y="102" width="16" height="18" fill="#181312" rx="1.5"/><g><polygon points="82,97 102,101 99,109 79,105" fill="#6f5a3c" stroke="#2f241f" stroke-width="1.2" stroke-linejoin="round"/><line x1="85" y1="99" x2="82" y2="106" stroke="#3f5144" stroke-width="1"/><line x1="92" y1="101" x2="90" y2="108" stroke="#3f5144" stroke-width="1"/></g><rect x="80" y="111" width="6" height="10" fill="#2a201c" rx="1"/><rect x="106" y="111" width="6" height="10" fill="#2a201c" rx="1"/><line x1="83" y1="100" x2="83" y2="88" stroke="#5f554e" stroke-width="2"/><line x1="107" y1="103" x2="114" y2="92" stroke="#5f554e" stroke-width="2"/></g><g id="placement-boca-core-1" transform="translate(-1 4) scale(1.014)" data-module-id="boca-core" data-node-id="boca-core-1" data-layer="foreground"><g><polygon points="94,90 116,99 94,108 72,99" fill="#bfa287" stroke="#2f241f" stroke-width="1.8" stroke-linejoin="round"/><polygon points="72,99 94,108 94,136 72,127" fill="#6a4b37" stroke="#2f241f" stroke-width="1.8" stroke-linejoin="round"/><polygon points="94,90 116,99 116,127 94,118" fill="#7c5a42" stroke="#2f241f" stroke-width="1.8" stroke-linejoin="round"/></g><g><polygon points="102,74 118,81 102,88 86,81" fill="#d0b9a4" stroke="#2f241f" stroke-width="1.8" stroke-linejoin="round"/><polygon points="86,81 102,88 102,106 86,99" fill="#7a5b47" stroke="#2f241f" stroke-width="1.8" stroke-linejoin="round"/><polygon points="102,74 118,81 118,99 102,92" fill="#8d6c57" stroke="#2f241f" stroke-width="1.8" stroke-linejoin="round"/></g><g><polygon points="74,99 104,103 101,111 71,107" fill="#4d6158" stroke="#2f241f" stroke-width="1.2" stroke-linejoin="round"/><line x1="77" y1="101" x2="74" y2="108" stroke="#3f5144" stroke-width="1"/><line x1="89" y1="103" x2="87" y2="110" stroke="#3f5144" stroke-width="1"/></g><rect x="86" y="94" width="18" height="22" fill="#201815" rx="1.5"/><rect x="90" y="97" width="5" height="14" fill="#dca145" rx="1"/><rect x="98" y="97" width="5" height="14" fill="#dca145" rx="1"/><polygon points="74,103 82,99 82,106 74,110" fill="#739db0" stroke="#2f241f" stroke-width="1.1" stroke-linejoin="round"/><polygon points="108,89 116,93 116,101 108,97" fill="#84b3c8" stroke="#2f241f" stroke-width="1.1" stroke-linejoin="round"/><g><polygon points="101,69.5 112,74 101,78.5 90,74" fill="#726156" stroke="#2f241f" stroke-width="1.4" stroke-linejoin="round"/><line x1="95.5" y1="72.5" x2="98.8" y2="75.125" stroke="#65564b" stroke-width="1"/><line x1="99.16666666666667" y1="71.75" x2="102.57142857142857" y2="74.9" stroke="#65564b" stroke-width="1"/><line x1="104.66666666666667" y1="72.2" x2="107.47058823529412" y2="75.28571428571429" stroke="#65564b" stroke-width="1"/></g><g><ellipse cx="86" cy="85" rx="10" ry="4.5" fill="#314b67" opacity="0.28"/><rect x="79" y="71" width="14" height="11" fill="#45698d" stroke="#2f241f" stroke-width="1.3" rx="2"/><ellipse cx="86" cy="71" rx="7" ry="2.2" fill="#6a97be" stroke="#2f241f" stroke-width="1"/></g><g><line x1="76" y1="94" x2="76" y2="118" stroke="#63564d" stroke-width="2.2" stroke-linecap="round"/><line x1="76" y1="96" x2="82" y2="94" stroke="#63564d" stroke-width="2.2" stroke-linecap="round"/><line x1="76" y1="115" x2="81" y2="120" stroke="#63564d" stroke-width="2.2" stroke-linecap="round"/></g></g><g id="placement-external-pipe-4" transform="translate(11 -6) scale(0.993)" data-module-id="external-pipe" data-node-id="external-pipe-4" data-layer="overlay"><g><line x1="92" y1="92" x2="92" y2="116" stroke="#74655a" stroke-width="2.2" stroke-linecap="round"/><line x1="92" y1="94" x2="98" y2="92" stroke="#74655a" stroke-width="2.2" stroke-linecap="round"/><line x1="92" y1="113" x2="97" y2="118" stroke="#74655a" stroke-width="2.2" stroke-linecap="round"/></g></g></g></g></svg>
