<svg xmlns="http://www.w3.org/2000/svg" viewBox="0 0 160 160"><ellipse cx="80" cy="128" rx="40" ry="16" fill="rgba(0,0,0,0.18)"/><polygon points="46,56 80,74 80,102 46,84" fill="#47616f" /><polygon points="114,56 80,74 80,102 114,84" fill="#5f7f8f" /><polygon points="80,38 114,56 80,74 46,56" fill="#7d9db0" /><polygon points="80,38 114,56 80,74 46,56" fill="none" stroke="#1f2d34" stroke-width="3"/><polygon points="46,56 80,74 80,102 46,84" fill="none" stroke="#1f2d34" stroke-width="2.2"/><polygon points="114,56 80,74 80,102 114,84" fill="none" stroke="#1f2d34" stroke-width="2.2"/><rect x="56" y="76" width="48" height="22" fill="#304652" /><rect x="74" y="82" width="10" height="16" fill="#f0ebe2" /><rect x="60" y="82" width="8" height="8" fill="#a8c9d4" /><rect x="92" y="82" width="8" height="8" fill="#a8c9d4" /><rect x="58" y="70" width="44" height="6" fill="#7fdcff" /></svg>
