<svg xmlns="http://www.w3.org/2000/svg" viewBox="0 0 160 160"><ellipse cx="80" cy="128" rx="40" ry="16" fill="rgba(0,0,0,0.18)"/><polygon points="46,56 80,74 80,102 46,84" fill="#62462f" /><polygon points="114,56 80,74 80,102 114,84" fill="#7c5a3c" /><polygon points="80,38 114,56 80,74 46,56" fill="#a87a58" /><polygon points="80,38 114,56 80,74 46,56" fill="none" stroke="#2a1c12" stroke-width="3"/><polygon points="46,56 80,74 80,102 46,84" fill="none" stroke="#2a1c12" stroke-width="2.2"/><polygon points="114,56 80,74 80,102 114,84" fill="none" stroke="#2a1c12" stroke-width="2.2"/><rect x="56" y="76" width="48" height="22" fill="#473224" /><rect x="74" y="82" width="10" height="16" fill="#f0ebe2" /><rect x="60" y="82" width="8" height="8" fill="#cfb18d" /><rect x="92" y="82" width="8" height="8" fill="#cfb18d" /><path d="M56 74 L104 74" stroke="#cfb18d" stroke-width="3" stroke-linecap="round" stroke-linejoin="round" fill="none" /></svg>
