<svg xmlns="http://www.w3.org/2000/svg" viewBox="0 0 160 160" fill="none"><g id="junkyard desmanche-asset" data-asset-type="junkyard desmanche" data-category="junkyard" data-density="medium-low"><g transform="translate(10 21.67) scale(0.7292)" id="junkyard desmanche-render-root"><g id="placement-anchor-shadow-3" transform="translate(-1 -7) scale(1.038)" data-module-id="anchor-shadow" data-node-id="anchor-shadow-3" data-layer="background"></g><g id="placement-scrap-pile-2" transform="translate(9 -2) scale(0.995)" data-module-id="scrap-pile" data-node-id="scrap-pile-2" data-layer="midground"><polygon points="70,118 88,111 105,118 95,126 78,126" fill="#8e5e49" stroke="#40342f" stroke-width="1.2" stroke-linejoin="round"/><polygon points="92,121 108,115 122,121 114,128 98,128" fill="#69747a" stroke="#40342f" stroke-width="1.2" stroke-linejoin="round"/><polygon points="80,127 92,122 104,127 98,133 86,133" fill="#a08d6a" stroke="#40342f" stroke-width="1.2" stroke-linejoin="round"/></g><g id="placement-junkyard-shed-1" transform="translate(4 5) scale(1.029)" data-module-id="junkyard-shed" data-node-id="junkyard-shed-1" data-layer="foreground"><g><polygon points="92,104 114,113 92,122 70,113" fill="#b9aba2" stroke="#2f241f" stroke-width="1.8" stroke-linejoin="round"/><polygon points="70,113 92,122 92,140 70,131" fill="#6d625c" stroke="#2f241f" stroke-width="1.8" stroke-linejoin="round"/><polygon points="92,104 114,113 114,131 92,122" fill="#827770" stroke="#2f241f" stroke-width="1.8" stroke-linejoin="round"/></g><g><polygon points="92,97 109,102 92,107 75,102" fill="#7c736d" stroke="#2f241f" stroke-width="1.4" stroke-linejoin="round"/><line x1="83.5" y1="100.33333333333333" x2="88.6" y2="103.25" stroke="#65564b" stroke-width="1"/><line x1="89.16666666666667" y1="99.5" x2="94.42857142857143" y2="103" stroke="#65564b" stroke-width="1"/><line x1="97.66666666666667" y1="100" x2="102" y2="103.42857142857143" stroke="#65564b" stroke-width="1"/></g><rect x="78" y="112" width="18" height="10" fill="#3d332d" rx="1"/></g><g id="placement-junkyard-shed-4" transform="translate(14 -6) scale(1.012)" data-module-id="junkyard-shed" data-node-id="junkyard-shed-4" data-layer="overlay"><g><polygon points="92,104 114,113 92,122 70,113" fill="#b9aba2" stroke="#2f241f" stroke-width="1.8" stroke-linejoin="round"/><polygon points="70,113 92,122 92,140 70,131" fill="#6d625c" stroke="#2f241f" stroke-width="1.8" stroke-linejoin="round"/><polygon points="92,104 114,113 114,131 92,122" fill="#827770" stroke="#2f241f" stroke-width="1.8" stroke-linejoin="round"/></g><g><polygon points="92,97 109,102 92,107 75,102" fill="#7c736d" stroke="#2f241f" stroke-width="1.4" stroke-linejoin="round"/><line x1="83.5" y1="100.33333333333333" x2="88.6" y2="103.25" stroke="#65564b" stroke-width="1"/><line x1="89.16666666666667" y1="99.5" x2="94.42857142857143" y2="103" stroke="#65564b" stroke-width="1"/><line x1="97.66666666666667" y1="100" x2="102" y2="103.42857142857143" stroke="#65564b" stroke-width="1"/></g><rect x="78" y="112" width="18" height="10" fill="#3d332d" rx="1"/></g></g></g></svg>
