<svg xmlns="http://www.w3.org/2000/svg" viewBox="0 0 160 160"><ellipse cx="80" cy="128" rx="40" ry="16" fill="rgba(0,0,0,0.18)"/><polygon points="34,58 80,82 80,112 34,88" fill="#5f4f4a" /><polygon points="126,58 80,82 80,112 126,88" fill="#786760" /><polygon points="80,34 126,58 80,82 34,58" fill="#8d7a71" /><polygon points="80,34 126,58 80,82 34,58" fill="none" stroke="#241d1b" stroke-width="3"/><polygon points="34,58 80,82 80,112 34,88" fill="none" stroke="#241d1b" stroke-width="2.2"/><polygon points="126,58 80,82 80,112 126,88" fill="none" stroke="#241d1b" stroke-width="2.2"/><rect x="50" y="78" width="60" height="26" fill="#352d2a" /><rect x="56" y="84" width="14" height="10" fill="#9a857b" /><rect x="74" y="84" width="14" height="10" fill="#9a857b" /><rect x="92" y="84" width="12" height="10" fill="#9a857b" /><path d="M48 98 L108 98" stroke="#c97f46" stroke-width="3" stroke-linecap="round" stroke-linejoin="round" fill="none" /><rect x="34" y="96" width="24" height="12" fill="#5a5f66" /><rect x="60" y="100" width="18" height="8" fill="#8b5c46" /><circle cx="44" cy="112" r="4" fill="#2b2f36" /><circle cx="68" cy="112" r="4" fill="#2b2f36" /></svg>
