<svg xmlns="http://www.w3.org/2000/svg" viewBox="0 0 160 160"><ellipse cx="80" cy="128" rx="40" ry="16" fill="rgba(0,0,0,0.18)"/><polygon points="34,58 80,82 80,112 34,88" fill="#41515f" /><polygon points="126,58 80,82 80,112 126,88" fill="#5d7286" /><polygon points="80,34 126,58 80,82 34,58" fill="#7a8fa1" /><polygon points="80,34 126,58 80,82 34,58" fill="none" stroke="#182028" stroke-width="3"/><polygon points="34,58 80,82 80,112 34,88" fill="none" stroke="#182028" stroke-width="2.2"/><polygon points="126,58 80,82 80,112 126,88" fill="none" stroke="#182028" stroke-width="2.2"/><rect x="50" y="78" width="60" height="26" fill="#1d2a34" /><rect x="56" y="84" width="14" height="10" fill="#6d8191" /><rect x="74" y="84" width="14" height="10" fill="#6d8191" /><rect x="92" y="84" width="12" height="10" fill="#6d8191" /><path d="M48 98 L108 98" stroke="#72b4da" stroke-width="3" stroke-linecap="round" stroke-linejoin="round" fill="none" /><rect x="34" y="100" width="24" height="10" fill="#4a748e" /><rect x="58" y="102" width="20" height="8" fill="#c97f46" /><rect x="110" y="68" width="6" height="26" fill="#1d2a34" /><path d="M113 68 L128 56" stroke="#72b4da" stroke-width="3" stroke-linecap="round" stroke-linejoin="round" fill="none" /></svg>
