<svg xmlns="http://www.w3.org/2000/svg" viewBox="0 0 160 160"><ellipse cx="80" cy="128" rx="40" ry="16" fill="rgba(0,0,0,0.18)"/><polygon points="34,58 80,82 80,112 34,88" fill="#3f454d" /><polygon points="126,58 80,82 80,112 126,88" fill="#59616c" /><polygon points="80,34 126,58 80,82 34,58" fill="#7d8794" /><polygon points="80,34 126,58 80,82 34,58" fill="none" stroke="#14181d" stroke-width="3"/><polygon points="34,58 80,82 80,112 34,88" fill="none" stroke="#14181d" stroke-width="2.2"/><polygon points="126,58 80,82 80,112 126,88" fill="none" stroke="#14181d" stroke-width="2.2"/><rect x="50" y="78" width="60" height="26" fill="#182028" /><rect x="56" y="84" width="14" height="10" fill="#5b646c" /><rect x="74" y="84" width="14" height="10" fill="#5b646c" /><rect x="92" y="84" width="12" height="10" fill="#5b646c" /><path d="M48 98 L108 98" stroke="#6f8ea8" stroke-width="3" stroke-linecap="round" stroke-linejoin="round" fill="none" /><rect x="108" y="54" width="12" height="42" fill="#182028" /><circle cx="114" cy="50" r="7" fill="#5b646c" opacity="0.65"/><circle cx="120" cy="42" r="10" fill="#5b646c" opacity="0.35"/></svg>
