<svg xmlns="http://www.w3.org/2000/svg" viewBox="0 0 160 160" fill="none"><g id="factory factory-asset" data-asset-type="factory factory" data-category="factory" data-density="medium-low"><g transform="translate(10 21.67) scale(0.7292)" id="factory factory-render-root"><g id="placement-anchor-shadow-3" transform="translate(-3 -5) scale(0.997)" data-module-id="anchor-shadow" data-node-id="anchor-shadow-3" data-layer="background"></g><g id="placement-factory-stack-2" transform="translate(-11 -2) scale(0.999)" data-module-id="factory-stack" data-node-id="factory-stack-2" data-layer="midground"><g><polygon points="118,68 124,72 118,76 112,72" fill="#c8ced4" stroke="#2f241f" stroke-width="1.8" stroke-linejoin="round"/><polygon points="112,72 118,76 118,112 112,108" fill="#656b72" stroke="#2f241f" stroke-width="1.8" stroke-linejoin="round"/><polygon points="118,68 124,72 124,108 118,104" fill="#797f86" stroke="#2f241f" stroke-width="1.8" stroke-linejoin="round"/></g><rect x="124" y="66" width="4" height="22" fill="#8b9298" rx="1"/><rect x="121" y="60" width="10" height="8" fill="#565d63" rx="1"/></g><g id="placement-factory-hall-1" transform="translate(-2 5) scale(1.027)" data-module-id="factory-hall" data-node-id="factory-hall-1" data-layer="foreground"><g><polygon points="94,96 126,108 94,120 62,108" fill="#b2bac1" stroke="#2f241f" stroke-width="1.8" stroke-linejoin="round"/><polygon points="62,108 94,120 94,144 62,132" fill="#5f6770" stroke="#2f241f" stroke-width="1.8" stroke-linejoin="round"/><polygon points="94,96 126,108 126,132 94,120" fill="#727b84" stroke="#2f241f" stroke-width="1.8" stroke-linejoin="round"/></g><g><polygon points="78,88.5 90,93 78,97.5 66,93" fill="#6d747a" stroke="#2f241f" stroke-width="1.4" stroke-linejoin="round"/><line x1="72" y1="91.5" x2="75.6" y2="94.125" stroke="#65564b" stroke-width="1"/><line x1="76" y1="90.75" x2="79.71428571428571" y2="93.9" stroke="#65564b" stroke-width="1"/><line x1="82" y1="91.2" x2="85.05882352941177" y2="94.28571428571429" stroke="#65564b" stroke-width="1"/></g><g><polygon points="100,93 114,98 100,103 86,98" fill="#7a8389" stroke="#2f241f" stroke-width="1.4" stroke-linejoin="round"/><line x1="93" y1="96.33333333333333" x2="97.2" y2="99.25" stroke="#65564b" stroke-width="1"/><line x1="97.66666666666667" y1="95.5" x2="102" y2="99" stroke="#65564b" stroke-width="1"/><line x1="104.66666666666667" y1="96" x2="108.23529411764706" y2="99.42857142857143" stroke="#65564b" stroke-width="1"/></g><rect x="74" y="105" width="18" height="12" fill="#24303a" rx="1"/><rect x="96" y="109" width="22" height="10" fill="#24303a" rx="1"/></g><g id="placement-factory-hall-4" transform="translate(12 -9) scale(1.031)" data-module-id="factory-hall" data-node-id="factory-hall-4" data-layer="overlay"><g><polygon points="94,96 126,108 94,120 62,108" fill="#b2bac1" stroke="#2f241f" stroke-width="1.8" stroke-linejoin="round"/><polygon points="62,108 94,120 94,144 62,132" fill="#5f6770" stroke="#2f241f" stroke-width="1.8" stroke-linejoin="round"/><polygon points="94,96 126,108 126,132 94,120" fill="#727b84" stroke="#2f241f" stroke-width="1.8" stroke-linejoin="round"/></g><g><polygon points="78,88.5 90,93 78,97.5 66,93" fill="#6d747a" stroke="#2f241f" stroke-width="1.4" stroke-linejoin="round"/><line x1="72" y1="91.5" x2="75.6" y2="94.125" stroke="#65564b" stroke-width="1"/><line x1="76" y1="90.75" x2="79.71428571428571" y2="93.9" stroke="#65564b" stroke-width="1"/><line x1="82" y1="91.2" x2="85.05882352941177" y2="94.28571428571429" stroke="#65564b" stroke-width="1"/></g><g><polygon points="100,93 114,98 100,103 86,98" fill="#7a8389" stroke="#2f241f" stroke-width="1.4" stroke-linejoin="round"/><line x1="93" y1="96.33333333333333" x2="97.2" y2="99.25" stroke="#65564b" stroke-width="1"/><line x1="97.66666666666667" y1="95.5" x2="102" y2="99" stroke="#65564b" stroke-width="1"/><line x1="104.66666666666667" y1="96" x2="108.23529411764706" y2="99.42857142857143" stroke="#65564b" stroke-width="1"/></g><rect x="74" y="105" width="18" height="12" fill="#24303a" rx="1"/><rect x="96" y="109" width="22" height="10" fill="#24303a" rx="1"/></g></g></g></svg>
