<svg xmlns="http://www.w3.org/2000/svg" viewBox="0 0 160 160"><ellipse cx="80" cy="128" rx="40" ry="16" fill="rgba(0,0,0,0.18)"/><polygon points="32,58 80,82 80,110 32,86" fill="#4c352f" /><polygon points="128,58 80,82 80,110 128,86" fill="#68483e" /><polygon points="80,34 128,58 80,82 32,58" fill="#8f6255" /><polygon points="80,34 128,58 80,82 32,58" fill="none" stroke="#1e1411" stroke-width="3"/><polygon points="32,58 80,82 80,110 32,86" fill="none" stroke="#1e1411" stroke-width="2.2"/><polygon points="128,58 80,82 80,110 128,86" fill="none" stroke="#1e1411" stroke-width="2.2"/><polygon points="46,58 70,70 46,82 22,70" fill="#7f5b4b" stroke="#1e1411" stroke-width="2"/><polygon points="74,52 96,64 74,76 52,64" fill="#8a6a55" stroke="#1e1411" stroke-width="2"/><polygon points="102,58 126,70 102,82 78,70" fill="#2a1d18" stroke="#1e1411" stroke-width="2"/><rect x="36" y="82" width="22" height="12" fill="#2a1d18" /><rect x="62" y="84" width="18" height="11" fill="#7f5b4b" /><rect x="86" y="82" width="24" height="12" fill="#8a6a55" /><rect x="112" y="84" width="14" height="10" fill="#7f5b4b" /><rect x="44" y="98" width="18" height="9" fill="#7f5b4b" /><rect x="68" y="100" width="18" height="8" fill="#8a6a55" /><rect x="92" y="98" width="18" height="9" fill="#2a1d18" /><circle cx="50" cy="68" r="3" fill="#f2d1a6" /><circle cx="84" cy="72" r="3" fill="#f2d1a6" /><circle cx="112" cy="70" r="3" fill="#f2d1a6" /></svg>
