<svg xmlns="http://www.w3.org/2000/svg" viewBox="0 0 160 160"><ellipse cx="80" cy="128" rx="40" ry="16" fill="rgba(0,0,0,0.18)"/><polygon points="34,50 80,72 80,114 34,92" fill="#556a7f" /><polygon points="126,50 80,72 80,114 126,92" fill="#7289a3" /><polygon points="80,26 126,50 80,72 34,50" fill="#96abc2" /><polygon points="80,26 126,50 80,72 34,50" fill="none" stroke="#17212c" stroke-width="3"/><polygon points="34,50 80,72 80,114 34,92" fill="none" stroke="#17212c" stroke-width="2.2"/><polygon points="126,50 80,72 80,114 126,92" fill="none" stroke="#17212c" stroke-width="2.2"/><rect x="50" y="76" width="60" height="30" fill="#213040" /><rect x="58" y="82" width="12" height="10" fill="#9cb7d0" /><rect x="74" y="82" width="12" height="10" fill="#9cb7d0" /><rect x="90" y="82" width="12" height="10" fill="#9cb7d0" /><rect x="74" y="66" width="12" height="26" fill="#f2f3f5" /><rect x="67" y="73" width="26" height="12" fill="#f2f3f5" /><rect x="76" y="98" width="8" height="8" fill="#d5e5ff" /></svg>
