<svg xmlns="http://www.w3.org/2000/svg" viewBox="0 0 160 160" fill="none"><g id="hospital hospital-asset" data-asset-type="hospital hospital" data-category="hospital" data-density="low"><g transform="translate(10 21.67) scale(0.7292)" id="hospital hospital-render-root"><g id="placement-anchor-shadow-3" transform="translate(-3 -6) scale(0.998)" data-module-id="anchor-shadow" data-node-id="anchor-shadow-3" data-layer="background"></g><g id="placement-hospital-entry-2" transform="translate(10 0) scale(0.991)" data-module-id="hospital-entry" data-node-id="hospital-entry-2" data-layer="midground"><g><polygon points="82,104 106,108 103,116 79,112" fill="#d8e4eb" stroke="#2f241f" stroke-width="1.2" stroke-linejoin="round"/><line x1="85" y1="106" x2="82" y2="113" stroke="#3f5144" stroke-width="1"/><line x1="94" y1="108" x2="92" y2="115" stroke="#3f5144" stroke-width="1"/></g><rect x="89" y="108" width="10" height="14" fill="#d8edf8" rx="1"/><line x1="94" y1="108" x2="94" y2="122" stroke="#87a8bb" stroke-width="1.2"/><rect x="116" y="91" width="10" height="10" fill="#ffffff" rx="1"/><rect x="119" y="88" width="4" height="16" fill="#ffffff" rx="1"/></g><g id="placement-hospital-core-1" transform="translate(0 4) scale(0.995)" data-module-id="hospital-core" data-node-id="hospital-core-1" data-layer="foreground"><g><polygon points="92,90 123,102 92,114 61,102" fill="#d7dde3" stroke="#2f241f" stroke-width="1.8" stroke-linejoin="round"/><polygon points="61,102 92,114 92,142 61,130" fill="#81909d" stroke="#2f241f" stroke-width="1.8" stroke-linejoin="round"/><polygon points="92,90 123,102 123,130 92,118" fill="#97a5b2" stroke="#2f241f" stroke-width="1.8" stroke-linejoin="round"/></g><g><polygon points="116,88 129,95 116,102 103,95" fill="#e4eaef" stroke="#2f241f" stroke-width="1.8" stroke-linejoin="round"/><polygon points="103,95 116,102 116,120 103,113" fill="#97a5b2" stroke="#2f241f" stroke-width="1.8" stroke-linejoin="round"/><polygon points="116,88 129,95 129,113 116,106" fill="#abb8c2" stroke="#2f241f" stroke-width="1.8" stroke-linejoin="round"/></g><polygon points="70,94 80,98 80,106 70,102" fill="#98cde3" stroke="#2f241f" stroke-width="1.1" stroke-linejoin="round"/><polygon points="86,94 96,98 96,106 86,102" fill="#98cde3" stroke="#2f241f" stroke-width="1.1" stroke-linejoin="round"/><polygon points="102,94 112,98 112,106 102,102" fill="#98cde3" stroke="#2f241f" stroke-width="1.1" stroke-linejoin="round"/><polygon points="70,108 80,112 80,120 70,116" fill="#98cde3" stroke="#2f241f" stroke-width="1.1" stroke-linejoin="round"/><polygon points="86,108 96,112 96,120 86,116" fill="#98cde3" stroke="#2f241f" stroke-width="1.1" stroke-linejoin="round"/><polygon points="102,108 112,112 112,120 102,116" fill="#98cde3" stroke="#2f241f" stroke-width="1.1" stroke-linejoin="round"/><rect x="86" y="102" width="14" height="20" fill="#f3f5f7" rx="1.5"/><rect x="80" y="109" width="26" height="8" fill="#f3f5f7" rx="1.5"/></g><g id="placement-hospital-core-4" transform="translate(12 -10) scale(0.997)" data-module-id="hospital-core" data-node-id="hospital-core-4" data-layer="overlay"><g><polygon points="92,90 123,102 92,114 61,102" fill="#d7dde3" stroke="#2f241f" stroke-width="1.8" stroke-linejoin="round"/><polygon points="61,102 92,114 92,142 61,130" fill="#81909d" stroke="#2f241f" stroke-width="1.8" stroke-linejoin="round"/><polygon points="92,90 123,102 123,130 92,118" fill="#97a5b2" stroke="#2f241f" stroke-width="1.8" stroke-linejoin="round"/></g><g><polygon points="116,88 129,95 116,102 103,95" fill="#e4eaef" stroke="#2f241f" stroke-width="1.8" stroke-linejoin="round"/><polygon points="103,95 116,102 116,120 103,113" fill="#97a5b2" stroke="#2f241f" stroke-width="1.8" stroke-linejoin="round"/><polygon points="116,88 129,95 129,113 116,106" fill="#abb8c2" stroke="#2f241f" stroke-width="1.8" stroke-linejoin="round"/></g><polygon points="70,94 80,98 80,106 70,102" fill="#98cde3" stroke="#2f241f" stroke-width="1.1" stroke-linejoin="round"/><polygon points="86,94 96,98 96,106 86,102" fill="#98cde3" stroke="#2f241f" stroke-width="1.1" stroke-linejoin="round"/><polygon points="102,94 112,98 112,106 102,102" fill="#98cde3" stroke="#2f241f" stroke-width="1.1" stroke-linejoin="round"/><polygon points="70,108 80,112 80,120 70,116" fill="#98cde3" stroke="#2f241f" stroke-width="1.1" stroke-linejoin="round"/><polygon points="86,108 96,112 96,120 86,116" fill="#98cde3" stroke="#2f241f" stroke-width="1.1" stroke-linejoin="round"/><polygon points="102,108 112,112 112,120 102,116" fill="#98cde3" stroke="#2f241f" stroke-width="1.1" stroke-linejoin="round"/><rect x="86" y="102" width="14" height="20" fill="#f3f5f7" rx="1.5"/><rect x="80" y="109" width="26" height="8" fill="#f3f5f7" rx="1.5"/></g></g></g></svg>
