<svg xmlns="http://www.w3.org/2000/svg" viewBox="0 0 160 160"><ellipse cx="80" cy="128" rx="40" ry="16" fill="rgba(0,0,0,0.18)"/><polygon points="44,62 80,80 80,104 44,86" fill="#4f395d" /><polygon points="116,62 80,80 80,104 116,86" fill="#694a7f" /><polygon points="80,44 116,62 80,80 44,62" fill="#9b73b9" /><polygon points="80,44 116,62 80,80 44,62" fill="none" stroke="#1f1425" stroke-width="3"/><polygon points="44,62 80,80 80,104 44,86" fill="none" stroke="#1f1425" stroke-width="2.2"/><polygon points="116,62 80,80 80,104 116,86" fill="none" stroke="#1f1425" stroke-width="2.2"/><rect x="50" y="74" width="60" height="10" fill="#b277d8" /><rect x="48" y="84" width="64" height="16" fill="#281d30" /><rect x="56" y="88" width="14" height="8" fill="#806295" /><rect x="74" y="88" width="14" height="8" fill="#806295" /><rect x="92" y="88" width="12" height="8" fill="#806295" /><path d="M52 78 L108 78" stroke="#f7d98a" stroke-width="4" stroke-linecap="round" stroke-linejoin="round" fill="none" /></svg>
