<svg xmlns="http://www.w3.org/2000/svg" viewBox="0 0 160 160" fill="none"><g id="market-clandestino mercado-negro-asset" data-asset-type="market-clandestino mercado-negro" data-category="market" data-density="medium-low"><g transform="translate(10 21.67) scale(0.7292)" id="market-clandestino mercado-negro-render-root"><g id="placement-awning-3" transform="translate(3 5) scale(1.023)" data-module-id="awning" data-node-id="awning-3" data-layer="midground"><g><polygon points="80,98 104,102 101,110 77,106" fill="#567362" stroke="#2f241f" stroke-width="1.2" stroke-linejoin="round"/><line x1="83" y1="100" x2="80" y2="107" stroke="#3f5144" stroke-width="1"/><line x1="92" y1="102" x2="90" y2="109" stroke="#3f5144" stroke-width="1"/></g></g><g id="placement-market-stall-row-2" transform="translate(12 -3) scale(0.992)" data-module-id="market-stall-row" data-node-id="market-stall-row-2" data-layer="foreground"><polygon points="76,105 86,109 76,113 66,109" fill="#ded6ca" stroke="#2f241f" stroke-width="1.4" stroke-linejoin="round"/><polygon points="94,108 103,112 94,116 85,112" fill="#c05c61" stroke="#2f241f" stroke-width="1.4" stroke-linejoin="round"/><polygon points="111,111 120,115 111,119 102,115" fill="#d6bf96" stroke="#2f241f" stroke-width="1.4" stroke-linejoin="round"/><rect x="72" y="113" width="10" height="7" fill="#47382f" rx="1"/><rect x="90" y="116" width="10" height="7" fill="#47382f" rx="1"/><rect x="108" y="119" width="10" height="7" fill="#47382f" rx="1"/></g><g id="placement-market-core-1" transform="translate(2 6) scale(1.013)" data-module-id="market-core" data-node-id="market-core-1" data-layer="foreground"><g><polygon points="92,104 118,114 92,124 66,114" fill="#c6b4a3" stroke="#2f241f" stroke-width="1.8" stroke-linejoin="round"/><polygon points="66,114 92,124 92,142 66,132" fill="#726256" stroke="#2f241f" stroke-width="1.8" stroke-linejoin="round"/><polygon points="92,104 118,114 118,132 92,122" fill="#87756a" stroke="#2f241f" stroke-width="1.8" stroke-linejoin="round"/></g><g><polygon points="63,101 89,105 86,113 60,109" fill="#5a6d61" stroke="#2f241f" stroke-width="1.2" stroke-linejoin="round"/><line x1="66" y1="103" x2="63" y2="110" stroke="#3f5144" stroke-width="1"/><line x1="76" y1="105" x2="74" y2="112" stroke="#3f5144" stroke-width="1"/></g><g><polygon points="87,103 109,107 106,115 84,111" fill="#767062" stroke="#2f241f" stroke-width="1.2" stroke-linejoin="round"/><line x1="90" y1="105" x2="87" y2="112" stroke="#3f5144" stroke-width="1"/><line x1="98" y1="107" x2="96" y2="114" stroke="#3f5144" stroke-width="1"/></g><g><polygon points="106,107 128,111 125,119 103,115" fill="#904b57" stroke="#2f241f" stroke-width="1.2" stroke-linejoin="round"/><line x1="109" y1="109" x2="106" y2="116" stroke="#3f5144" stroke-width="1"/><line x1="117" y1="111" x2="115" y2="118" stroke="#3f5144" stroke-width="1"/></g><rect x="70" y="108" width="40" height="10" fill="#2d2520" rx="1.5"/><polygon points="116,108 124,112 124,119 116,115" fill="#87b4c9" stroke="#2f241f" stroke-width="1.1" stroke-linejoin="round"/></g><g id="placement-corrugated-roof-4" transform="translate(13 11) scale(1.037)" data-module-id="corrugated-roof" data-node-id="corrugated-roof-4" data-layer="overlay"><g><polygon points="92,96 109,104 92,112 75,104" fill="#8a7869" stroke="#2f241f" stroke-width="1.4" stroke-linejoin="round"/><line x1="83.5" y1="101.33333333333333" x2="88.6" y2="106" stroke="#65564b" stroke-width="1"/><line x1="89.16666666666667" y1="100" x2="94.42857142857143" y2="105.6" stroke="#65564b" stroke-width="1"/><line x1="97.66666666666667" y1="100.8" x2="102" y2="106.28571428571429" stroke="#65564b" stroke-width="1"/></g></g></g></g></svg>
