<svg xmlns="http://www.w3.org/2000/svg" viewBox="0 0 160 160"><ellipse cx="80" cy="128" rx="40" ry="16" fill="rgba(0,0,0,0.18)"/><polygon points="40,38 80,58 80,118 40,98" fill="#4b6c77" /><polygon points="120,38 80,58 80,118 120,98" fill="#648b98" /><polygon points="80,18 120,38 80,58 40,38" fill="#8cb5c3" /><polygon points="80,18 120,38 80,58 40,38" fill="none" stroke="#1e2f36" stroke-width="3"/><polygon points="40,38 80,58 80,118 40,98" fill="none" stroke="#1e2f36" stroke-width="2.2"/><polygon points="120,38 80,58 80,118 120,98" fill="none" stroke="#1e2f36" stroke-width="2.2"/><rect x="52" y="52" width="56" height="58" fill="#2e4752" /><rect x="58" y="58" width="10" height="8" fill="#8fd0ea" /><rect x="74" y="58" width="10" height="8" fill="#8fd0ea" /><rect x="90" y="58" width="10" height="8" fill="#8fd0ea" /><rect x="58" y="70" width="10" height="8" fill="#8fd0ea" /><rect x="74" y="70" width="10" height="8" fill="#8fd0ea" /><rect x="90" y="70" width="10" height="8" fill="#8fd0ea" /><rect x="58" y="82" width="10" height="8" fill="#8fd0ea" /><rect x="74" y="82" width="10" height="8" fill="#8fd0ea" /><rect x="90" y="82" width="10" height="8" fill="#8fd0ea" /><rect x="58" y="94" width="10" height="8" fill="#8fd0ea" /><rect x="74" y="94" width="10" height="8" fill="#8fd0ea" /><rect x="90" y="94" width="10" height="8" fill="#8fd0ea" /><path d="M54 48 L106 48" stroke="#74d0ff" stroke-width="3" stroke-linecap="round" stroke-linejoin="round" fill="none" /></svg>
