<svg xmlns="http://www.w3.org/2000/svg" viewBox="0 0 160 160"><ellipse cx="80" cy="128" rx="40" ry="16" fill="rgba(0,0,0,0.18)"/><polygon points="40,38 80,58 80,118 40,98" fill="#615d57" /><polygon points="120,38 80,58 80,118 120,98" fill="#7c7870" /><polygon points="80,18 120,38 80,58 40,38" fill="#a7a29a" /><polygon points="80,18 120,38 80,58 40,38" fill="none" stroke="#2a2622" stroke-width="3"/><polygon points="40,38 80,58 80,118 40,98" fill="none" stroke="#2a2622" stroke-width="2.2"/><polygon points="120,38 80,58 80,118 120,98" fill="none" stroke="#2a2622" stroke-width="2.2"/><rect x="52" y="52" width="56" height="58" fill="#3f3c37" /><rect x="58" y="58" width="10" height="8" fill="#d9d0c4" /><rect x="74" y="58" width="10" height="8" fill="#d9d0c4" /><rect x="90" y="58" width="10" height="8" fill="#d9d0c4" /><rect x="58" y="70" width="10" height="8" fill="#d9d0c4" /><rect x="74" y="70" width="10" height="8" fill="#d9d0c4" /><rect x="90" y="70" width="10" height="8" fill="#d9d0c4" /><rect x="58" y="82" width="10" height="8" fill="#d9d0c4" /><rect x="74" y="82" width="10" height="8" fill="#d9d0c4" /><rect x="90" y="82" width="10" height="8" fill="#d9d0c4" /><rect x="58" y="94" width="10" height="8" fill="#d9d0c4" /><rect x="74" y="94" width="10" height="8" fill="#d9d0c4" /><rect x="90" y="94" width="10" height="8" fill="#d9d0c4" /><rect x="72" y="108" width="16" height="6" fill="#d9d0c4" /></svg>
