<svg xmlns="http://www.w3.org/2000/svg" viewBox="0 0 160 160"><ellipse cx="80" cy="128" rx="40" ry="16" fill="rgba(0,0,0,0.18)"/><polygon points="34,50 80,72 80,114 34,92" fill="#5a6673" /><polygon points="126,50 80,72 80,114 126,92" fill="#758290" /><polygon points="80,26 126,50 80,72 34,50" fill="#97a4b2" /><polygon points="80,26 126,50 80,72 34,50" fill="none" stroke="#1b2128" stroke-width="3"/><polygon points="34,50 80,72 80,114 34,92" fill="none" stroke="#1b2128" stroke-width="2.2"/><polygon points="126,50 80,72 80,114 126,92" fill="none" stroke="#1b2128" stroke-width="2.2"/><rect x="48" y="76" width="64" height="30" fill="#8c99a8" /><rect x="56" y="70" width="48" height="10" fill="#2a2f36" /><rect x="72" y="84" width="16" height="22" fill="#2b3139" /><rect x="66" y="78" width="3" height="24" fill="#2a2f36" /><rect x="74" y="78" width="3" height="24" fill="#2a2f36" /><rect x="82" y="78" width="3" height="24" fill="#2a2f36" /><rect x="90" y="78" width="3" height="24" fill="#2a2f36" /><rect x="110" y="56" width="10" height="34" fill="#2a2f36" /><rect x="112" y="50" width="6" height="10" fill="#8c99a8" /></svg>
