<svg xmlns="http://www.w3.org/2000/svg" viewBox="0 0 160 160"><ellipse cx="80" cy="128" rx="40" ry="16" fill="rgba(0,0,0,0.18)"/><polygon points="36,58 80,80 80,108 36,86" fill="#3f4e68" /><polygon points="124,58 80,80 80,108 124,86" fill="#5d7598" /><polygon points="80,36 124,58 80,80 36,58" fill="#7895c2" /><polygon points="80,36 124,58 80,80 36,58" fill="none" stroke="#1b1421" stroke-width="3"/><polygon points="36,58 80,80 80,108 36,86" fill="none" stroke="#1b1421" stroke-width="2.2"/><polygon points="124,58 80,80 80,108 124,86" fill="none" stroke="#1b1421" stroke-width="2.2"/><rect x="48" y="84" width="64" height="12" fill="#221b2f" /><rect x="60" y="70" width="10" height="28" fill="#668bd2" /><rect x="90" y="70" width="10" height="28" fill="#668bd2" /><circle cx="50" cy="68" r="5" fill="#7ad7ff" /><circle cx="80" cy="58" r="5" fill="#7ad7ff" /><circle cx="110" cy="68" r="5" fill="#7ad7ff" /><path d="M48 88 L112 88" stroke="#70d7ff" stroke-width="4" stroke-linecap="round" stroke-linejoin="round" fill="none" /><polygon points="80,46 92,58 80,70 68,58" fill="#7ad7ff" stroke="#1b1421" stroke-width="2"/></svg>
