<svg xmlns="http://www.w3.org/2000/svg" viewBox="0 0 160 160" fill="none"><g id="baile rave-asset" data-asset-type="baile rave" data-category="nightlife" data-density="medium"><g transform="translate(10 21.67) scale(0.7292)" id="baile rave-render-root"><g id="placement-favela-right-back-2" transform="translate(13 -10) scale(1.007)" data-module-id="favela-side-block-right" data-node-id="favela-right-back-2" data-layer="background"><g><polygon points="144,86 167,96 144,106 121,96" fill="#c5b7ac" stroke="#2f241f" stroke-width="1.8" stroke-linejoin="round"/><polygon points="121,96 144,106 144,142 121,132" fill="#6f6056" stroke="#2f241f" stroke-width="1.8" stroke-linejoin="round"/><polygon points="144,86 167,96 167,132 144,122" fill="#837368" stroke="#2f241f" stroke-width="1.8" stroke-linejoin="round"/></g><g><polygon points="121,86 138,93 121,100 104,93" fill="#d4c7bc" stroke="#2f241f" stroke-width="1.8" stroke-linejoin="round"/><polygon points="104,93 121,100 121,128 104,121" fill="#7f6f64" stroke="#2f241f" stroke-width="1.8" stroke-linejoin="round"/><polygon points="121,86 138,93 138,121 121,114" fill="#948277" stroke="#2f241f" stroke-width="1.8" stroke-linejoin="round"/></g><g><polygon points="102,84 114,89 102,94 90,89" fill="#b6a89e" stroke="#2f241f" stroke-width="1.8" stroke-linejoin="round"/><polygon points="90,89 102,94 102,114 90,109" fill="#665950" stroke="#2f241f" stroke-width="1.8" stroke-linejoin="round"/><polygon points="102,84 114,89 114,109 102,104" fill="#78695d" stroke="#2f241f" stroke-width="1.8" stroke-linejoin="round"/></g><g><polygon points="86,84 94,88 86,92 78,88" fill="#cabdb1" stroke="#2f241f" stroke-width="1.8" stroke-linejoin="round"/><polygon points="78,88 86,92 86,106 78,102" fill="#73645b" stroke="#2f241f" stroke-width="1.8" stroke-linejoin="round"/><polygon points="86,84 94,88 94,102 86,98" fill="#86766a" stroke="#2f241f" stroke-width="1.8" stroke-linejoin="round"/></g><polygon points="150,90 168,98 168,130 150,122" fill="#685950" stroke="#2f241f" stroke-width="1.4" stroke-linejoin="round"/><g><polygon points="121,79 132,84 121,89 110,84" fill="#776a62" stroke="#2f241f" stroke-width="1.4" stroke-linejoin="round"/><line x1="115.5" y1="82.33333333333333" x2="118.8" y2="85.25" stroke="#65564b" stroke-width="1"/><line x1="119.16666666666667" y1="81.5" x2="122.57142857142857" y2="85" stroke="#65564b" stroke-width="1"/><line x1="124.66666666666667" y1="82" x2="127.47058823529412" y2="85.42857142857143" stroke="#65564b" stroke-width="1"/></g><g><polygon points="97,78 106,82 97,86 88,82" fill="#68605d" stroke="#2f241f" stroke-width="1.4" stroke-linejoin="round"/><line x1="92.5" y1="80.66666666666667" x2="95.2" y2="83" stroke="#65564b" stroke-width="1"/><line x1="95.5" y1="80" x2="98.28571428571429" y2="82.8" stroke="#65564b" stroke-width="1"/><line x1="100" y1="80.4" x2="102.29411764705883" y2="83.14285714285714" stroke="#65564b" stroke-width="1"/></g><polygon points="144,79 156,84 144,89 132,84" fill="#d4cbc1" stroke="#2f241f" stroke-width="1.4" stroke-linejoin="round"/><g><polygon points="112,101 130,105 127,113 109,109" fill="#516960" stroke="#2f241f" stroke-width="1.2" stroke-linejoin="round"/><line x1="115" y1="103" x2="112" y2="110" stroke="#3f5144" stroke-width="1"/><line x1="121" y1="105" x2="119" y2="112" stroke="#3f5144" stroke-width="1"/></g><g><polygon points="135,104 151,108 148,116 132,112" fill="#60746b" stroke="#2f241f" stroke-width="1.2" stroke-linejoin="round"/><line x1="138" y1="106" x2="135" y2="113" stroke="#3f5144" stroke-width="1"/><line x1="143" y1="108" x2="141" y2="115" stroke="#3f5144" stroke-width="1"/></g><g><polygon points="153,106 165,110 162,118 150,114" fill="#586b62" stroke="#2f241f" stroke-width="1.2" stroke-linejoin="round"/><line x1="156" y1="108" x2="153" y2="115" stroke="#3f5144" stroke-width="1"/><line x1="159" y1="110" x2="157" y2="117" stroke="#3f5144" stroke-width="1"/></g><polygon points="116,93 124,97 124,105 116,101" fill="#86b3c8" stroke="#2f241f" stroke-width="1.1" stroke-linejoin="round"/><polygon points="128,98 135,102 135,109 128,105" fill="#7ca9c0" stroke="#2f241f" stroke-width="1.1" stroke-linejoin="round"/><polygon points="146,94 152,98 152,104 146,100" fill="#85b5c8" stroke="#2f241f" stroke-width="1.1" stroke-linejoin="round"/><polygon points="158,100 164,104 164,110 158,106" fill="#89b8cb" stroke="#2f241f" stroke-width="1.1" stroke-linejoin="round"/><g><ellipse cx="137" cy="80" rx="10" ry="4.5" fill="#314b67" opacity="0.28"/><rect x="130" y="66" width="14" height="11" fill="#4f7598" stroke="#2f241f" stroke-width="1.3" rx="2"/><ellipse cx="137" cy="66" rx="7" ry="2.2" fill="#6a97be" stroke="#2f241f" stroke-width="1"/></g><g><line x1="164" y1="95" x2="164" y2="122" stroke="#6b5f58" stroke-width="2.2" stroke-linecap="round"/><line x1="164" y1="97" x2="170" y2="95" stroke="#6b5f58" stroke-width="2.2" stroke-linecap="round"/><line x1="164" y1="119" x2="169" y2="124" stroke="#6b5f58" stroke-width="2.2" stroke-linecap="round"/></g><g><line x1="117" y1="90" x2="117" y2="110" stroke="#665b55" stroke-width="2.2" stroke-linecap="round"/><line x1="117" y1="92" x2="123" y2="90" stroke="#665b55" stroke-width="2.2" stroke-linecap="round"/><line x1="117" y1="107" x2="122" y2="112" stroke="#665b55" stroke-width="2.2" stroke-linecap="round"/></g><g><polygon points="135,116 143,118 143,123 135,121" fill="#7c6d64" stroke="#2f241f" stroke-width="1.1" stroke-linejoin="round"/><polygon points="140,120 148,122 148,127 140,125" fill="#7c6d64" stroke="#2f241f" stroke-width="1.1" stroke-linejoin="round"/><polygon points="145,124 153,126 153,131 145,129" fill="#7c6d64" stroke="#2f241f" stroke-width="1.1" stroke-linejoin="round"/><polygon points="150,128 158,130 158,135 150,133" fill="#7c6d64" stroke="#2f241f" stroke-width="1.1" stroke-linejoin="round"/></g></g><g id="placement-favela-left-back-1" transform="translate(-20 -8) scale(0.977)" data-module-id="favela-side-block-left" data-node-id="favela-left-back-1" data-layer="background"><g><polygon points="48,84 71,94 48,104 25,94" fill="#bca899" stroke="#2f241f" stroke-width="1.8" stroke-linejoin="round"/><polygon points="25,94 48,104 48,144 25,134" fill="#62544d" stroke="#2f241f" stroke-width="1.8" stroke-linejoin="round"/><polygon points="48,84 71,94 71,134 48,124" fill="#77675f" stroke="#2f241f" stroke-width="1.8" stroke-linejoin="round"/></g><g><polygon points="74,85 91,93 74,101 57,93" fill="#d1c0b4" stroke="#2f241f" stroke-width="1.8" stroke-linejoin="round"/><polygon points="57,93 74,101 74,132 57,124" fill="#7a675d" stroke="#2f241f" stroke-width="1.8" stroke-linejoin="round"/><polygon points="74,85 91,93 91,124 74,116" fill="#8c786d" stroke="#2f241f" stroke-width="1.8" stroke-linejoin="round"/></g><g><polygon points="94,83 108,89 94,95 80,89" fill="#a99284" stroke="#2f241f" stroke-width="1.8" stroke-linejoin="round"/><polygon points="80,89 94,95 94,119 80,113" fill="#65574f" stroke="#2f241f" stroke-width="1.8" stroke-linejoin="round"/><polygon points="94,83 108,89 108,113 94,107" fill="#78685e" stroke="#2f241f" stroke-width="1.8" stroke-linejoin="round"/></g><g><polygon points="108,82 117,87 108,92 99,87" fill="#c0b4a7" stroke="#2f241f" stroke-width="1.8" stroke-linejoin="round"/><polygon points="99,87 108,92 108,110 99,105" fill="#6d5f57" stroke="#2f241f" stroke-width="1.8" stroke-linejoin="round"/><polygon points="108,82 117,87 117,105 108,100" fill="#7c6d65" stroke="#2f241f" stroke-width="1.8" stroke-linejoin="round"/></g><polygon points="26,89 44,97 44,133 26,125" fill="#6c5c54" stroke="#2f241f" stroke-width="1.4" stroke-linejoin="round"/><g><polygon points="68,76.5 82,82 68,87.5 54,82" fill="#7a6d64" stroke="#2f241f" stroke-width="1.4" stroke-linejoin="round"/><line x1="61" y1="80.16666666666667" x2="65.2" y2="83.375" stroke="#65564b" stroke-width="1"/><line x1="65.66666666666667" y1="79.25" x2="70" y2="83.1" stroke="#65564b" stroke-width="1"/><line x1="72.66666666666667" y1="79.8" x2="76.23529411764706" y2="83.57142857142857" stroke="#65564b" stroke-width="1"/></g><g><polygon points="96,73 108,78 96,83 84,78" fill="#70645c" stroke="#2f241f" stroke-width="1.4" stroke-linejoin="round"/><line x1="90" y1="76.33333333333333" x2="93.6" y2="79.25" stroke="#65564b" stroke-width="1"/><line x1="94" y1="75.5" x2="97.71428571428571" y2="79" stroke="#65564b" stroke-width="1"/><line x1="100" y1="76" x2="103.05882352941177" y2="79.42857142857143" stroke="#65564b" stroke-width="1"/></g><g><polygon points="112,78 120,82 112,86 104,82" fill="#605855" stroke="#2f241f" stroke-width="1.4" stroke-linejoin="round"/><line x1="108" y1="80.66666666666667" x2="110.4" y2="83" stroke="#65564b" stroke-width="1"/><line x1="110.66666666666667" y1="80" x2="113.14285714285714" y2="82.8" stroke="#65564b" stroke-width="1"/><line x1="114.66666666666667" y1="80.4" x2="116.70588235294117" y2="83.14285714285714" stroke="#65564b" stroke-width="1"/></g><polygon points="50,81 62,86 50,91 38,86" fill="#d1cac2" stroke="#2f241f" stroke-width="1.4" stroke-linejoin="round"/><g><polygon points="35,104 53,108 50,116 32,112" fill="#586d63" stroke="#2f241f" stroke-width="1.2" stroke-linejoin="round"/><line x1="38" y1="106" x2="35" y2="113" stroke="#3f5144" stroke-width="1"/><line x1="44" y1="108" x2="42" y2="115" stroke="#3f5144" stroke-width="1"/></g><g><polygon points="60,102 80,106 77,114 57,110" fill="#66766d" stroke="#2f241f" stroke-width="1.2" stroke-linejoin="round"/><line x1="63" y1="104" x2="60" y2="111" stroke="#3f5144" stroke-width="1"/><line x1="70" y1="106" x2="68" y2="113" stroke="#3f5144" stroke-width="1"/></g><g><polygon points="86,98 102,102 99,110 83,106" fill="#596b61" stroke="#2f241f" stroke-width="1.2" stroke-linejoin="round"/><line x1="89" y1="100" x2="86" y2="107" stroke="#3f5144" stroke-width="1"/><line x1="94" y1="102" x2="92" y2="109" stroke="#3f5144" stroke-width="1"/></g><polygon points="40,96 48,92 48,100 40,104" fill="#7da8bd" stroke="#2f241f" stroke-width="1.1" stroke-linejoin="round"/><polygon points="66,92 74,96 74,104 66,100" fill="#84b3c8" stroke="#2f241f" stroke-width="1.1" stroke-linejoin="round"/><polygon points="78,99 85,103 85,110 78,106" fill="#88b5ca" stroke="#2f241f" stroke-width="1.1" stroke-linejoin="round"/><polygon points="98,90 105,94 105,101 98,97" fill="#85b4c8" stroke="#2f241f" stroke-width="1.1" stroke-linejoin="round"/><g><ellipse cx="57" cy="81" rx="10" ry="4.5" fill="#314b67" opacity="0.28"/><rect x="50" y="67" width="14" height="11" fill="#45698d" stroke="#2f241f" stroke-width="1.3" rx="2"/><ellipse cx="57" cy="67" rx="7" ry="2.2" fill="#6a97be" stroke="#2f241f" stroke-width="1"/></g><g><ellipse cx="92" cy="77" rx="10" ry="4.5" fill="#314b67" opacity="0.28"/><rect x="85" y="63" width="14" height="11" fill="#4f7395" stroke="#2f241f" stroke-width="1.3" rx="2"/><ellipse cx="92" cy="63" rx="7" ry="2.2" fill="#6a97be" stroke="#2f241f" stroke-width="1"/></g><g><line x1="31" y1="93" x2="31" y2="123" stroke="#6e625a" stroke-width="2.2" stroke-linecap="round"/><line x1="31" y1="95" x2="37" y2="93" stroke="#6e625a" stroke-width="2.2" stroke-linecap="round"/><line x1="31" y1="120" x2="36" y2="125" stroke="#6e625a" stroke-width="2.2" stroke-linecap="round"/></g><g><line x1="86" y1="89" x2="86" y2="111" stroke="#665a54" stroke-width="2.2" stroke-linecap="round"/><line x1="86" y1="91" x2="92" y2="89" stroke="#665a54" stroke-width="2.2" stroke-linecap="round"/><line x1="86" y1="108" x2="91" y2="113" stroke="#665a54" stroke-width="2.2" stroke-linecap="round"/></g><g><polygon points="18,114 26,116 26,121 18,119" fill="#776860" stroke="#2f241f" stroke-width="1.1" stroke-linejoin="round"/><polygon points="23,118 31,120 31,125 23,123" fill="#776860" stroke="#2f241f" stroke-width="1.1" stroke-linejoin="round"/><polygon points="28,122 36,124 36,129 28,127" fill="#776860" stroke="#2f241f" stroke-width="1.1" stroke-linejoin="round"/><polygon points="33,126 41,128 41,133 33,131" fill="#776860" stroke="#2f241f" stroke-width="1.1" stroke-linejoin="round"/></g></g><g id="placement-stage-main-6" transform="translate(2 -30) scale(1.019)" data-module-id="stage" data-node-id="stage-main-6" data-layer="midground"><g><polygon points="72,86 124,94 122,108 70,100" fill="#564745" stroke="#2f241f" stroke-width="1.5" stroke-linejoin="round"/><rect x="76" y="90" width="44" height="4" fill="#8a7669" opacity="0.5"/></g><g><polygon points="96,70 118,77 96,84 74,77" fill="#3f3438" stroke="#2f241f" stroke-width="1.4" stroke-linejoin="round"/><polygon points="74,77 96,84 96,106 74,99" fill="#1f1a1c" stroke="#2f241f" stroke-width="1.4" stroke-linejoin="round"/><polygon points="96,70 118,77 118,99 96,92" fill="#2a2327" stroke="#2f241f" stroke-width="1.4" stroke-linejoin="round"/></g><rect x="79" y="58" width="34" height="18" fill="#f0c56a" rx="2" opacity="0.92"/><g><polygon points="73,76 109,80 106,88 70,84" fill="#6d6474" stroke="#2f241f" stroke-width="1.2" stroke-linejoin="round"/><line x1="76" y1="78" x2="73" y2="85" stroke="#3f5144" stroke-width="1"/><line x1="91" y1="80" x2="89" y2="87" stroke="#3f5144" stroke-width="1"/></g><rect x="76" y="92" width="40" height="4" fill="#b3a89d" opacity="0.3" rx="1"/></g><g id="placement-favela-right-mid-4" transform="translate(32 -1) scale(0.985)" data-module-id="favela-side-block-right" data-node-id="favela-right-mid-4" data-layer="midground"><g><polygon points="144,86 167,96 144,106 121,96" fill="#c5b7ac" stroke="#2f241f" stroke-width="1.8" stroke-linejoin="round"/><polygon points="121,96 144,106 144,142 121,132" fill="#6f6056" stroke="#2f241f" stroke-width="1.8" stroke-linejoin="round"/><polygon points="144,86 167,96 167,132 144,122" fill="#837368" stroke="#2f241f" stroke-width="1.8" stroke-linejoin="round"/></g><g><polygon points="121,86 138,93 121,100 104,93" fill="#d4c7bc" stroke="#2f241f" stroke-width="1.8" stroke-linejoin="round"/><polygon points="104,93 121,100 121,128 104,121" fill="#7f6f64" stroke="#2f241f" stroke-width="1.8" stroke-linejoin="round"/><polygon points="121,86 138,93 138,121 121,114" fill="#948277" stroke="#2f241f" stroke-width="1.8" stroke-linejoin="round"/></g><g><polygon points="102,84 114,89 102,94 90,89" fill="#b6a89e" stroke="#2f241f" stroke-width="1.8" stroke-linejoin="round"/><polygon points="90,89 102,94 102,114 90,109" fill="#665950" stroke="#2f241f" stroke-width="1.8" stroke-linejoin="round"/><polygon points="102,84 114,89 114,109 102,104" fill="#78695d" stroke="#2f241f" stroke-width="1.8" stroke-linejoin="round"/></g><g><polygon points="86,84 94,88 86,92 78,88" fill="#cabdb1" stroke="#2f241f" stroke-width="1.8" stroke-linejoin="round"/><polygon points="78,88 86,92 86,106 78,102" fill="#73645b" stroke="#2f241f" stroke-width="1.8" stroke-linejoin="round"/><polygon points="86,84 94,88 94,102 86,98" fill="#86766a" stroke="#2f241f" stroke-width="1.8" stroke-linejoin="round"/></g><polygon points="150,90 168,98 168,130 150,122" fill="#685950" stroke="#2f241f" stroke-width="1.4" stroke-linejoin="round"/><g><polygon points="121,79 132,84 121,89 110,84" fill="#776a62" stroke="#2f241f" stroke-width="1.4" stroke-linejoin="round"/><line x1="115.5" y1="82.33333333333333" x2="118.8" y2="85.25" stroke="#65564b" stroke-width="1"/><line x1="119.16666666666667" y1="81.5" x2="122.57142857142857" y2="85" stroke="#65564b" stroke-width="1"/><line x1="124.66666666666667" y1="82" x2="127.47058823529412" y2="85.42857142857143" stroke="#65564b" stroke-width="1"/></g><g><polygon points="97,78 106,82 97,86 88,82" fill="#68605d" stroke="#2f241f" stroke-width="1.4" stroke-linejoin="round"/><line x1="92.5" y1="80.66666666666667" x2="95.2" y2="83" stroke="#65564b" stroke-width="1"/><line x1="95.5" y1="80" x2="98.28571428571429" y2="82.8" stroke="#65564b" stroke-width="1"/><line x1="100" y1="80.4" x2="102.29411764705883" y2="83.14285714285714" stroke="#65564b" stroke-width="1"/></g><polygon points="144,79 156,84 144,89 132,84" fill="#d4cbc1" stroke="#2f241f" stroke-width="1.4" stroke-linejoin="round"/><g><polygon points="112,101 130,105 127,113 109,109" fill="#516960" stroke="#2f241f" stroke-width="1.2" stroke-linejoin="round"/><line x1="115" y1="103" x2="112" y2="110" stroke="#3f5144" stroke-width="1"/><line x1="121" y1="105" x2="119" y2="112" stroke="#3f5144" stroke-width="1"/></g><g><polygon points="135,104 151,108 148,116 132,112" fill="#60746b" stroke="#2f241f" stroke-width="1.2" stroke-linejoin="round"/><line x1="138" y1="106" x2="135" y2="113" stroke="#3f5144" stroke-width="1"/><line x1="143" y1="108" x2="141" y2="115" stroke="#3f5144" stroke-width="1"/></g><g><polygon points="153,106 165,110 162,118 150,114" fill="#586b62" stroke="#2f241f" stroke-width="1.2" stroke-linejoin="round"/><line x1="156" y1="108" x2="153" y2="115" stroke="#3f5144" stroke-width="1"/><line x1="159" y1="110" x2="157" y2="117" stroke="#3f5144" stroke-width="1"/></g><polygon points="116,93 124,97 124,105 116,101" fill="#86b3c8" stroke="#2f241f" stroke-width="1.1" stroke-linejoin="round"/><polygon points="128,98 135,102 135,109 128,105" fill="#7ca9c0" stroke="#2f241f" stroke-width="1.1" stroke-linejoin="round"/><polygon points="146,94 152,98 152,104 146,100" fill="#85b5c8" stroke="#2f241f" stroke-width="1.1" stroke-linejoin="round"/><polygon points="158,100 164,104 164,110 158,106" fill="#89b8cb" stroke="#2f241f" stroke-width="1.1" stroke-linejoin="round"/><g><ellipse cx="137" cy="80" rx="10" ry="4.5" fill="#314b67" opacity="0.28"/><rect x="130" y="66" width="14" height="11" fill="#4f7598" stroke="#2f241f" stroke-width="1.3" rx="2"/><ellipse cx="137" cy="66" rx="7" ry="2.2" fill="#6a97be" stroke="#2f241f" stroke-width="1"/></g><g><line x1="164" y1="95" x2="164" y2="122" stroke="#6b5f58" stroke-width="2.2" stroke-linecap="round"/><line x1="164" y1="97" x2="170" y2="95" stroke="#6b5f58" stroke-width="2.2" stroke-linecap="round"/><line x1="164" y1="119" x2="169" y2="124" stroke="#6b5f58" stroke-width="2.2" stroke-linecap="round"/></g><g><line x1="117" y1="90" x2="117" y2="110" stroke="#665b55" stroke-width="2.2" stroke-linecap="round"/><line x1="117" y1="92" x2="123" y2="90" stroke="#665b55" stroke-width="2.2" stroke-linecap="round"/><line x1="117" y1="107" x2="122" y2="112" stroke="#665b55" stroke-width="2.2" stroke-linecap="round"/></g><g><polygon points="135,116 143,118 143,123 135,121" fill="#7c6d64" stroke="#2f241f" stroke-width="1.1" stroke-linejoin="round"/><polygon points="140,120 148,122 148,127 140,125" fill="#7c6d64" stroke="#2f241f" stroke-width="1.1" stroke-linejoin="round"/><polygon points="145,124 153,126 153,131 145,129" fill="#7c6d64" stroke="#2f241f" stroke-width="1.1" stroke-linejoin="round"/><polygon points="150,128 158,130 158,135 150,133" fill="#7c6d64" stroke="#2f241f" stroke-width="1.1" stroke-linejoin="round"/></g></g><g id="placement-favela-left-mid-3" transform="translate(-39 1) scale(0.984)" data-module-id="favela-side-block-left" data-node-id="favela-left-mid-3" data-layer="midground"><g><polygon points="48,84 71,94 48,104 25,94" fill="#bca899" stroke="#2f241f" stroke-width="1.8" stroke-linejoin="round"/><polygon points="25,94 48,104 48,144 25,134" fill="#62544d" stroke="#2f241f" stroke-width="1.8" stroke-linejoin="round"/><polygon points="48,84 71,94 71,134 48,124" fill="#77675f" stroke="#2f241f" stroke-width="1.8" stroke-linejoin="round"/></g><g><polygon points="74,85 91,93 74,101 57,93" fill="#d1c0b4" stroke="#2f241f" stroke-width="1.8" stroke-linejoin="round"/><polygon points="57,93 74,101 74,132 57,124" fill="#7a675d" stroke="#2f241f" stroke-width="1.8" stroke-linejoin="round"/><polygon points="74,85 91,93 91,124 74,116" fill="#8c786d" stroke="#2f241f" stroke-width="1.8" stroke-linejoin="round"/></g><g><polygon points="94,83 108,89 94,95 80,89" fill="#a99284" stroke="#2f241f" stroke-width="1.8" stroke-linejoin="round"/><polygon points="80,89 94,95 94,119 80,113" fill="#65574f" stroke="#2f241f" stroke-width="1.8" stroke-linejoin="round"/><polygon points="94,83 108,89 108,113 94,107" fill="#78685e" stroke="#2f241f" stroke-width="1.8" stroke-linejoin="round"/></g><g><polygon points="108,82 117,87 108,92 99,87" fill="#c0b4a7" stroke="#2f241f" stroke-width="1.8" stroke-linejoin="round"/><polygon points="99,87 108,92 108,110 99,105" fill="#6d5f57" stroke="#2f241f" stroke-width="1.8" stroke-linejoin="round"/><polygon points="108,82 117,87 117,105 108,100" fill="#7c6d65" stroke="#2f241f" stroke-width="1.8" stroke-linejoin="round"/></g><polygon points="26,89 44,97 44,133 26,125" fill="#6c5c54" stroke="#2f241f" stroke-width="1.4" stroke-linejoin="round"/><g><polygon points="68,76.5 82,82 68,87.5 54,82" fill="#7a6d64" stroke="#2f241f" stroke-width="1.4" stroke-linejoin="round"/><line x1="61" y1="80.16666666666667" x2="65.2" y2="83.375" stroke="#65564b" stroke-width="1"/><line x1="65.66666666666667" y1="79.25" x2="70" y2="83.1" stroke="#65564b" stroke-width="1"/><line x1="72.66666666666667" y1="79.8" x2="76.23529411764706" y2="83.57142857142857" stroke="#65564b" stroke-width="1"/></g><g><polygon points="96,73 108,78 96,83 84,78" fill="#70645c" stroke="#2f241f" stroke-width="1.4" stroke-linejoin="round"/><line x1="90" y1="76.33333333333333" x2="93.6" y2="79.25" stroke="#65564b" stroke-width="1"/><line x1="94" y1="75.5" x2="97.71428571428571" y2="79" stroke="#65564b" stroke-width="1"/><line x1="100" y1="76" x2="103.05882352941177" y2="79.42857142857143" stroke="#65564b" stroke-width="1"/></g><g><polygon points="112,78 120,82 112,86 104,82" fill="#605855" stroke="#2f241f" stroke-width="1.4" stroke-linejoin="round"/><line x1="108" y1="80.66666666666667" x2="110.4" y2="83" stroke="#65564b" stroke-width="1"/><line x1="110.66666666666667" y1="80" x2="113.14285714285714" y2="82.8" stroke="#65564b" stroke-width="1"/><line x1="114.66666666666667" y1="80.4" x2="116.70588235294117" y2="83.14285714285714" stroke="#65564b" stroke-width="1"/></g><polygon points="50,81 62,86 50,91 38,86" fill="#d1cac2" stroke="#2f241f" stroke-width="1.4" stroke-linejoin="round"/><g><polygon points="35,104 53,108 50,116 32,112" fill="#586d63" stroke="#2f241f" stroke-width="1.2" stroke-linejoin="round"/><line x1="38" y1="106" x2="35" y2="113" stroke="#3f5144" stroke-width="1"/><line x1="44" y1="108" x2="42" y2="115" stroke="#3f5144" stroke-width="1"/></g><g><polygon points="60,102 80,106 77,114 57,110" fill="#66766d" stroke="#2f241f" stroke-width="1.2" stroke-linejoin="round"/><line x1="63" y1="104" x2="60" y2="111" stroke="#3f5144" stroke-width="1"/><line x1="70" y1="106" x2="68" y2="113" stroke="#3f5144" stroke-width="1"/></g><g><polygon points="86,98 102,102 99,110 83,106" fill="#596b61" stroke="#2f241f" stroke-width="1.2" stroke-linejoin="round"/><line x1="89" y1="100" x2="86" y2="107" stroke="#3f5144" stroke-width="1"/><line x1="94" y1="102" x2="92" y2="109" stroke="#3f5144" stroke-width="1"/></g><polygon points="40,96 48,92 48,100 40,104" fill="#7da8bd" stroke="#2f241f" stroke-width="1.1" stroke-linejoin="round"/><polygon points="66,92 74,96 74,104 66,100" fill="#84b3c8" stroke="#2f241f" stroke-width="1.1" stroke-linejoin="round"/><polygon points="78,99 85,103 85,110 78,106" fill="#88b5ca" stroke="#2f241f" stroke-width="1.1" stroke-linejoin="round"/><polygon points="98,90 105,94 105,101 98,97" fill="#85b4c8" stroke="#2f241f" stroke-width="1.1" stroke-linejoin="round"/><g><ellipse cx="57" cy="81" rx="10" ry="4.5" fill="#314b67" opacity="0.28"/><rect x="50" y="67" width="14" height="11" fill="#45698d" stroke="#2f241f" stroke-width="1.3" rx="2"/><ellipse cx="57" cy="67" rx="7" ry="2.2" fill="#6a97be" stroke="#2f241f" stroke-width="1"/></g><g><ellipse cx="92" cy="77" rx="10" ry="4.5" fill="#314b67" opacity="0.28"/><rect x="85" y="63" width="14" height="11" fill="#4f7395" stroke="#2f241f" stroke-width="1.3" rx="2"/><ellipse cx="92" cy="63" rx="7" ry="2.2" fill="#6a97be" stroke="#2f241f" stroke-width="1"/></g><g><line x1="31" y1="93" x2="31" y2="123" stroke="#6e625a" stroke-width="2.2" stroke-linecap="round"/><line x1="31" y1="95" x2="37" y2="93" stroke="#6e625a" stroke-width="2.2" stroke-linecap="round"/><line x1="31" y1="120" x2="36" y2="125" stroke="#6e625a" stroke-width="2.2" stroke-linecap="round"/></g><g><line x1="86" y1="89" x2="86" y2="111" stroke="#665a54" stroke-width="2.2" stroke-linecap="round"/><line x1="86" y1="91" x2="92" y2="89" stroke="#665a54" stroke-width="2.2" stroke-linecap="round"/><line x1="86" y1="108" x2="91" y2="113" stroke="#665a54" stroke-width="2.2" stroke-linecap="round"/></g><g><polygon points="18,114 26,116 26,121 18,119" fill="#776860" stroke="#2f241f" stroke-width="1.1" stroke-linejoin="round"/><polygon points="23,118 31,120 31,125 23,123" fill="#776860" stroke="#2f241f" stroke-width="1.1" stroke-linejoin="round"/><polygon points="28,122 36,124 36,129 28,127" fill="#776860" stroke="#2f241f" stroke-width="1.1" stroke-linejoin="round"/><polygon points="33,126 41,128 41,133 33,131" fill="#776860" stroke="#2f241f" stroke-width="1.1" stroke-linejoin="round"/></g></g><g id="placement-street-main-5" transform="translate(-3 6) scale(1.007)" data-module-id="street-segment" data-node-id="street-main-5" data-layer="midground"><g><polygon points="96,100 142,118 96,136 50,118" fill="#585556" stroke="#2f241f" stroke-width="1.4" stroke-linejoin="round"/><line x1="77.6" y1="112.85714285714286" x2="119" y2="121.6" stroke="#9a948c" stroke-width="1" opacity="0.7"/></g><g><polygon points="97,96 127,108 97,120 67,108" fill="#67605e" stroke="#2f241f" stroke-width="1.4" stroke-linejoin="round"/><line x1="85" y1="104.57142857142857" x2="112" y2="110.4" stroke="#9a948c" stroke-width="1" opacity="0.7"/></g><polygon points="67,108 97,120 126,108 97,97" fill="#74706c" opacity="0.45"/><rect x="93" y="102" width="4" height="22" fill="#bcb5ad" opacity="0.28" rx="1"/><rect x="100" y="105" width="2.6" height="16" fill="#cac4bd" opacity="0.22" rx="1"/></g><g id="placement-speaker-main-11" transform="translate(9 -19) scale(1.016)" data-module-id="speaker-stack" data-node-id="speaker-main-11" data-layer="foreground"><g><rect x="61" y="82" width="14" height="22" fill="#2a2527" stroke="#2f241f" stroke-width="1.2" rx="1.5"/><rect x="62.5" y="83.5" width="11" height="8" fill="#40373a" stroke="#61585b" stroke-width="0.8" rx="1"/><rect x="62.5" y="94" width="11" height="8" fill="#40373a" stroke="#61585b" stroke-width="0.8" rx="1"/><ellipse cx="68" cy="87.5" rx="2.6" ry="2.2" fill="#6f6567"/><ellipse cx="68" cy="98" rx="3.2" ry="2.8" fill="#6f6567"/></g><g><rect x="75" y="88" width="14" height="22" fill="#2a2527" stroke="#2f241f" stroke-width="1.2" rx="1.5"/><rect x="76.5" y="89.5" width="11" height="8" fill="#40373a" stroke="#61585b" stroke-width="0.8" rx="1"/><rect x="76.5" y="100" width="11" height="8" fill="#40373a" stroke="#61585b" stroke-width="0.8" rx="1"/><ellipse cx="82" cy="93.5" rx="2.6" ry="2.2" fill="#6f6567"/><ellipse cx="82" cy="104" rx="3.2" ry="2.8" fill="#6f6567"/></g><g><rect x="118" y="88" width="14" height="22" fill="#2a2527" stroke="#2f241f" stroke-width="1.2" rx="1.5"/><rect x="119.5" y="89.5" width="11" height="8" fill="#40373a" stroke="#61585b" stroke-width="0.8" rx="1"/><rect x="119.5" y="100" width="11" height="8" fill="#40373a" stroke="#61585b" stroke-width="0.8" rx="1"/><ellipse cx="125" cy="93.5" rx="2.6" ry="2.2" fill="#6f6567"/><ellipse cx="125" cy="104" rx="3.2" ry="2.8" fill="#6f6567"/></g><g><rect x="133" y="93" width="14" height="22" fill="#2a2527" stroke="#2f241f" stroke-width="1.2" rx="1.5"/><rect x="134.5" y="94.5" width="11" height="8" fill="#40373a" stroke="#61585b" stroke-width="0.8" rx="1"/><rect x="134.5" y="105" width="11" height="8" fill="#40373a" stroke="#61585b" stroke-width="0.8" rx="1"/><ellipse cx="140" cy="98.5" rx="2.6" ry="2.2" fill="#6f6567"/><ellipse cx="140" cy="109" rx="3.2" ry="2.8" fill="#6f6567"/></g></g><g id="placement-crowd-mid-10" transform="translate(-3 -9) scale(0.975)" data-module-id="crowd-mass" data-node-id="crowd-mid-10" data-layer="foreground"><g><ellipse cx="80" cy="120" rx="25" ry="10" fill="#251c18" opacity="0.22"/><ellipse cx="70" cy="112" rx="10" ry="7" fill="#302623"/><ellipse cx="82" cy="108" rx="11" ry="8" fill="#3a2e29"/><ellipse cx="95" cy="113" rx="9" ry="6" fill="#2c231f"/><ellipse cx="60" cy="115" rx="7" ry="5" fill="#4a3a32"/></g><g><ellipse cx="98" cy="116" rx="32" ry="10" fill="#251c18" opacity="0.22"/><ellipse cx="88" cy="108" rx="10" ry="7" fill="#342825"/><ellipse cx="100" cy="104" rx="11" ry="8" fill="#3a2e29"/><ellipse cx="113" cy="109" rx="9" ry="6" fill="#2c231f"/><ellipse cx="78" cy="111" rx="7" ry="5" fill="#4a3a32"/></g><g><ellipse cx="115" cy="121" rx="26" ry="10" fill="#251c18" opacity="0.22"/><ellipse cx="105" cy="113" rx="10" ry="7" fill="#3a2d2a"/><ellipse cx="117" cy="109" rx="11" ry="8" fill="#3a2e29"/><ellipse cx="130" cy="114" rx="9" ry="6" fill="#2c231f"/><ellipse cx="95" cy="116" rx="7" ry="5" fill="#4a3a32"/></g><g><ellipse cx="95" cy="128" rx="37" ry="10" fill="#251c18" opacity="0.22"/><ellipse cx="85" cy="120" rx="10" ry="7" fill="#2c221f"/><ellipse cx="97" cy="116" rx="11" ry="8" fill="#3a2e29"/><ellipse cx="110" cy="121" rx="9" ry="6" fill="#2c231f"/><ellipse cx="75" cy="123" rx="7" ry="5" fill="#4a3a32"/></g><g><ellipse cx="126" cy="126" rx="21" ry="10" fill="#251c18" opacity="0.22"/><ellipse cx="116" cy="118" rx="10" ry="7" fill="#43312b"/><ellipse cx="128" cy="114" rx="11" ry="8" fill="#3a2e29"/><ellipse cx="141" cy="119" rx="9" ry="6" fill="#2c231f"/><ellipse cx="106" cy="121" rx="7" ry="5" fill="#4a3a32"/></g></g><g id="placement-tent-right-13" transform="translate(11 -9) scale(0.98)" data-module-id="tent" data-node-id="tent-right-13" data-layer="foreground"><g><polygon points="109,94 131,99 119,110" fill="#7c7280" stroke="#2f241f" stroke-width="1.2" stroke-linejoin="round"/><line x1="114" y1="110" x2="114" y2="120" stroke="#605558" stroke-width="1.2"/><line x1="126" y1="113" x2="126" y2="122" stroke="#605558" stroke-width="1.2"/></g><g><polygon points="129,100 151,105 139,116" fill="#8a4149" stroke="#2f241f" stroke-width="1.2" stroke-linejoin="round"/><line x1="134" y1="116" x2="134" y2="126" stroke="#605558" stroke-width="1.2"/><line x1="146" y1="119" x2="146" y2="128" stroke="#605558" stroke-width="1.2"/></g><g><polygon points="120,104 132,108 129,116 117,112" fill="#5e6e65" stroke="#2f241f" stroke-width="1.2" stroke-linejoin="round"/><line x1="123" y1="106" x2="120" y2="113" stroke="#3f5144" stroke-width="1"/><line x1="126" y1="108" x2="124" y2="115" stroke="#3f5144" stroke-width="1"/></g></g><g id="placement-tent-left-12" transform="translate(-66 -5) scale(1.018)" data-module-id="tent" data-node-id="tent-left-12" data-layer="foreground"><g><polygon points="109,94 131,99 119,110" fill="#7c7280" stroke="#2f241f" stroke-width="1.2" stroke-linejoin="round"/><line x1="114" y1="110" x2="114" y2="120" stroke="#605558" stroke-width="1.2"/><line x1="126" y1="113" x2="126" y2="122" stroke="#605558" stroke-width="1.2"/></g><g><polygon points="129,100 151,105 139,116" fill="#8a4149" stroke="#2f241f" stroke-width="1.2" stroke-linejoin="round"/><line x1="134" y1="116" x2="134" y2="126" stroke="#605558" stroke-width="1.2"/><line x1="146" y1="119" x2="146" y2="128" stroke="#605558" stroke-width="1.2"/></g><g><polygon points="120,104 132,108 129,116 117,112" fill="#5e6e65" stroke="#2f241f" stroke-width="1.2" stroke-linejoin="round"/><line x1="123" y1="106" x2="120" y2="113" stroke="#3f5144" stroke-width="1"/><line x1="126" y1="108" x2="124" y2="115" stroke="#3f5144" stroke-width="1"/></g></g><g id="placement-crowd-front-right-9" transform="translate(14 1) scale(1.021)" data-module-id="crowd-mass" data-node-id="crowd-front-right-9" data-layer="foreground"><g><ellipse cx="80" cy="120" rx="25" ry="10" fill="#251c18" opacity="0.22"/><ellipse cx="70" cy="112" rx="10" ry="7" fill="#302623"/><ellipse cx="82" cy="108" rx="11" ry="8" fill="#3a2e29"/><ellipse cx="95" cy="113" rx="9" ry="6" fill="#2c231f"/><ellipse cx="60" cy="115" rx="7" ry="5" fill="#4a3a32"/></g><g><ellipse cx="98" cy="116" rx="32" ry="10" fill="#251c18" opacity="0.22"/><ellipse cx="88" cy="108" rx="10" ry="7" fill="#342825"/><ellipse cx="100" cy="104" rx="11" ry="8" fill="#3a2e29"/><ellipse cx="113" cy="109" rx="9" ry="6" fill="#2c231f"/><ellipse cx="78" cy="111" rx="7" ry="5" fill="#4a3a32"/></g><g><ellipse cx="115" cy="121" rx="26" ry="10" fill="#251c18" opacity="0.22"/><ellipse cx="105" cy="113" rx="10" ry="7" fill="#3a2d2a"/><ellipse cx="117" cy="109" rx="11" ry="8" fill="#3a2e29"/><ellipse cx="130" cy="114" rx="9" ry="6" fill="#2c231f"/><ellipse cx="95" cy="116" rx="7" ry="5" fill="#4a3a32"/></g><g><ellipse cx="95" cy="128" rx="37" ry="10" fill="#251c18" opacity="0.22"/><ellipse cx="85" cy="120" rx="10" ry="7" fill="#2c221f"/><ellipse cx="97" cy="116" rx="11" ry="8" fill="#3a2e29"/><ellipse cx="110" cy="121" rx="9" ry="6" fill="#2c231f"/><ellipse cx="75" cy="123" rx="7" ry="5" fill="#4a3a32"/></g><g><ellipse cx="126" cy="126" rx="21" ry="10" fill="#251c18" opacity="0.22"/><ellipse cx="116" cy="118" rx="10" ry="7" fill="#43312b"/><ellipse cx="128" cy="114" rx="11" ry="8" fill="#3a2e29"/><ellipse cx="141" cy="119" rx="9" ry="6" fill="#2c231f"/><ellipse cx="106" cy="121" rx="7" ry="5" fill="#4a3a32"/></g></g><g id="placement-crowd-front-left-8" transform="translate(-11 4) scale(1.022)" data-module-id="crowd-mass" data-node-id="crowd-front-left-8" data-layer="foreground"><g><ellipse cx="80" cy="120" rx="25" ry="10" fill="#251c18" opacity="0.22"/><ellipse cx="70" cy="112" rx="10" ry="7" fill="#302623"/><ellipse cx="82" cy="108" rx="11" ry="8" fill="#3a2e29"/><ellipse cx="95" cy="113" rx="9" ry="6" fill="#2c231f"/><ellipse cx="60" cy="115" rx="7" ry="5" fill="#4a3a32"/></g><g><ellipse cx="98" cy="116" rx="32" ry="10" fill="#251c18" opacity="0.22"/><ellipse cx="88" cy="108" rx="10" ry="7" fill="#342825"/><ellipse cx="100" cy="104" rx="11" ry="8" fill="#3a2e29"/><ellipse cx="113" cy="109" rx="9" ry="6" fill="#2c231f"/><ellipse cx="78" cy="111" rx="7" ry="5" fill="#4a3a32"/></g><g><ellipse cx="115" cy="121" rx="26" ry="10" fill="#251c18" opacity="0.22"/><ellipse cx="105" cy="113" rx="10" ry="7" fill="#3a2d2a"/><ellipse cx="117" cy="109" rx="11" ry="8" fill="#3a2e29"/><ellipse cx="130" cy="114" rx="9" ry="6" fill="#2c231f"/><ellipse cx="95" cy="116" rx="7" ry="5" fill="#4a3a32"/></g><g><ellipse cx="95" cy="128" rx="37" ry="10" fill="#251c18" opacity="0.22"/><ellipse cx="85" cy="120" rx="10" ry="7" fill="#2c221f"/><ellipse cx="97" cy="116" rx="11" ry="8" fill="#3a2e29"/><ellipse cx="110" cy="121" rx="9" ry="6" fill="#2c231f"/><ellipse cx="75" cy="123" rx="7" ry="5" fill="#4a3a32"/></g><g><ellipse cx="126" cy="126" rx="21" ry="10" fill="#251c18" opacity="0.22"/><ellipse cx="116" cy="118" rx="10" ry="7" fill="#43312b"/><ellipse cx="128" cy="114" rx="11" ry="8" fill="#3a2e29"/><ellipse cx="141" cy="119" rx="9" ry="6" fill="#2c231f"/><ellipse cx="106" cy="121" rx="7" ry="5" fill="#4a3a32"/></g></g><g id="placement-wires-grid-16" transform="translate(-3 3) scale(1.019)" data-module-id="wires" data-node-id="wires-grid-16" data-layer="overlay"><path d="M undefined undefined C NaN NaN, NaN NaN, undefined undefined" stroke="#4f4a4a" stroke-width="1.1" fill="none" stroke-linecap="round"/><path d="M undefined undefined C NaN NaN, NaN NaN, undefined undefined" stroke="#4f4a4a" stroke-width="1.1" fill="none" stroke-linecap="round"/><path d="M undefined undefined C NaN NaN, NaN NaN, undefined undefined" stroke="#4f4a4a" stroke-width="1.1" fill="none" stroke-linecap="round"/><path d="M undefined undefined C NaN NaN, NaN NaN, undefined undefined" stroke="#4f4a4a" stroke-width="1.1" fill="none" stroke-linecap="round"/></g><g id="placement-truss-main-7" transform="translate(2 -31) scale(1.028)" data-module-id="truss" data-node-id="truss-main-7" data-layer="overlay"><g><rect x="70" y="58" width="4" height="30" fill="#665f61" stroke="#4c4749" stroke-width="1"/><rect x="118" y="66" width="4" height="22" fill="#665f61" stroke="#4c4749" stroke-width="1"/><line x1="72" y1="58" x2="120" y2="66" stroke="#4c4749" stroke-width="1.2"/><line x1="72" y1="88" x2="120" y2="88" stroke="#4c4749" stroke-width="1.2"/><line x1="72" y1="68" x2="120" y2="76" stroke="#4c4749" stroke-width="1.1"/></g><rect x="77" y="69" width="6" height="3" fill="#f0c56a" rx="1"/><rect x="90" y="67" width="6" height="3" fill="#f0c56a" rx="1"/><rect x="103" y="69" width="6" height="3" fill="#f0c56a" rx="1"/><line x1="76" y1="59" x2="69" y2="51" stroke="#f2ca74" stroke-width="1.3" opacity="0.8"/><line x1="95" y1="58" x2="95" y2="50" stroke="#f2ca74" stroke-width="1.1" opacity="0.7"/><line x1="116" y1="61" x2="123" y2="53" stroke="#f2ca74" stroke-width="1.3" opacity="0.8"/></g><g id="placement-canopy-vendors-14" transform="translate(-3 -3) scale(0.979)" data-module-id="canopy-strip" data-node-id="canopy-vendors-14" data-layer="overlay"><g><polygon points="60,91 70,95 60,99 50,95" fill="#8a3c50" stroke="#2f241f" stroke-width="1.4" stroke-linejoin="round"/><line x1="55" y1="93.66666666666667" x2="58" y2="96" stroke="#65564b" stroke-width="1"/><line x1="58.333333333333336" y1="93" x2="61.42857142857143" y2="95.8" stroke="#65564b" stroke-width="1"/><line x1="63.333333333333336" y1="93.4" x2="65.88235294117646" y2="96.14285714285714" stroke="#65564b" stroke-width="1"/></g><g><polygon points="74,95 85,99 74,103 63,99" fill="#f1f2f0" stroke="#2f241f" stroke-width="1.4" stroke-linejoin="round"/><line x1="68.5" y1="97.66666666666667" x2="71.8" y2="100" stroke="#65564b" stroke-width="1"/><line x1="72.16666666666667" y1="97" x2="75.57142857142857" y2="99.8" stroke="#65564b" stroke-width="1"/><line x1="77.66666666666667" y1="97.4" x2="80.47058823529412" y2="100.14285714285714" stroke="#65564b" stroke-width="1"/></g><g><polygon points="122,92.5 135,97 122,101.5 109,97" fill="#d8d6d2" stroke="#2f241f" stroke-width="1.4" stroke-linejoin="round"/><line x1="115.5" y1="95.5" x2="119.4" y2="98.125" stroke="#65564b" stroke-width="1"/><line x1="119.83333333333333" y1="94.75" x2="123.85714285714286" y2="97.9" stroke="#65564b" stroke-width="1"/><line x1="126.33333333333333" y1="95.2" x2="129.64705882352942" y2="98.28571428571429" stroke="#65564b" stroke-width="1"/></g><g><polygon points="140,98 150,102 140,106 130,102" fill="#6e706f" stroke="#2f241f" stroke-width="1.4" stroke-linejoin="round"/><line x1="135" y1="100.66666666666667" x2="138" y2="103" stroke="#65564b" stroke-width="1"/><line x1="138.33333333333334" y1="100" x2="141.42857142857142" y2="102.8" stroke="#65564b" stroke-width="1"/><line x1="143.33333333333334" y1="100.4" x2="145.88235294117646" y2="103.14285714285714" stroke="#65564b" stroke-width="1"/></g></g><g id="placement-pole-grid-15" transform="translate(3 -3) scale(0.989)" data-module-id="pole" data-node-id="pole-grid-15" data-layer="overlay"><g><line x1="66" y1="118" x2="66" y2="74" stroke="#5f554e" stroke-width="2.4" stroke-linecap="round"/><line x1="63" y1="80" x2="74" y2="78" stroke="#5f554e" stroke-width="1.4" stroke-linecap="round"/></g><g><line x1="130" y1="116" x2="130" y2="78" stroke="#5f554e" stroke-width="2.4" stroke-linecap="round"/><line x1="127" y1="84" x2="138" y2="82" stroke="#5f554e" stroke-width="1.4" stroke-linecap="round"/></g><g><line x1="154" y1="109" x2="154" y2="77" stroke="#5f554e" stroke-width="2.4" stroke-linecap="round"/><line x1="151" y1="83" x2="162" y2="81" stroke="#5f554e" stroke-width="1.4" stroke-linecap="round"/></g></g></g></g></svg>
