<svg xmlns="http://www.w3.org/2000/svg" viewBox="0 0 160 160"><ellipse cx="80" cy="128" rx="40" ry="16" fill="rgba(0,0,0,0.18)"/><polygon points="48,62 80,78 80,102 48,86" fill="#5c4630" /><polygon points="112,62 80,78 80,102 112,86" fill="#795d41" /><polygon points="80,46 112,62 80,78 48,62" fill="#9d7b56" /><polygon points="80,46 112,62 80,78 48,62" fill="none" stroke="#1c140f" stroke-width="3"/><polygon points="48,62 80,78 80,102 48,86" fill="none" stroke="#1c140f" stroke-width="2.2"/><polygon points="112,62 80,78 80,102 112,86" fill="none" stroke="#1c140f" stroke-width="2.2"/><rect x="54" y="80" width="52" height="18" fill="#271e17" /><rect x="56" y="72" width="48" height="6" fill="#87694d" /><rect x="58" y="88" width="44" height="5" fill="#d1a042" /><circle cx="50" cy="92" r="7" fill="#d1a042" /><circle cx="110" cy="92" r="7" fill="#d1a042" /><rect x="50" y="90" width="60" height="4" fill="#3a281b" /></svg>
