<svg xmlns="http://www.w3.org/2000/svg" viewBox="0 0 160 160"><ellipse cx="80" cy="128" rx="40" ry="16" fill="rgba(0,0,0,0.18)"/><polygon points="34,50 80,72 80,114 34,92" fill="#57637d" /><polygon points="126,50 80,72 80,114 126,92" fill="#7383a3" /><polygon points="80,26 126,50 80,72 34,50" fill="#91a0c8" /><polygon points="80,26 126,50 80,72 34,50" fill="none" stroke="#1b2232" stroke-width="3"/><polygon points="34,50 80,72 80,114 34,92" fill="none" stroke="#1b2232" stroke-width="2.2"/><polygon points="126,50 80,72 80,114 126,92" fill="none" stroke="#1b2232" stroke-width="2.2"/><polygon points="80,44 102,56 80,68 58,56" fill="#9aa8c7" stroke="#1b2232" stroke-width="2"/><rect x="52" y="74" width="56" height="28" fill="#24314a" /><rect x="60" y="80" width="8" height="22" fill="#9aa8c7" /><rect x="74" y="80" width="8" height="22" fill="#9aa8c7" /><rect x="88" y="80" width="8" height="22" fill="#9aa8c7" /><rect x="74" y="88" width="8" height="14" fill="#ece6d8" /></svg>
