<svg xmlns="http://www.w3.org/2000/svg" fill="none" viewBox="0 0 160 160"><ellipse cx="90" cy="126" fill="rgba(23, 31, 38, 0.18)" rx="34" ry="10"/><polygon fill="#77a8c3" stroke="#22303a" stroke-width="2" points="99,30 107,34 99,38 91,34"/><rect width="6" height="12" x="96" y="34" fill="#77a8c3" stroke="#22303a" stroke-width="1.5" rx="1.5"/><path stroke="#22303a" stroke-linecap="round" stroke-width="2" d="m44 86 13-10v16"/><line x1="52" x2="58" y1="83" y2="80" stroke="#22303a" stroke-width="1.5"/><line x1="50" x2="56" y1="87" y2="84" stroke="#22303a" stroke-width="1.5"/><line x1="48" x2="54" y1="91" y2="88" stroke="#22303a" stroke-width="1.5"/><rect width="18" height="8" x="36" y="93" fill="#6d8d6b" opacity=".85" rx="1.5"/><polygon fill="#7d7268" stroke="#22303a" stroke-width="2" points="52,44 82,52 82,86 52,78"/><polygon fill="#beb7af" stroke="#22303a" stroke-width="2" points="112,44 82,52 82,86 112,78"/><polygon fill="#6f777d" stroke="#22303a" stroke-width="2" points="82,36 112,44 82,52 52,44"/><rect width="7" height="6" x="74" y="60" fill="#cfe6ef" rx="1.5"/><rect width="7" height="6" x="85" y="60" fill="#cfe6ef" rx="1.5"/><polygon fill="#998e84" stroke="#22303a" stroke-width="2" points="34,54 56,60 56,84 34,78"/><polygon fill="#9c6751" stroke="#22303a" stroke-width="2" points="78,54 56,60 56,84 78,78"/><polygon fill="#8a5d4a" stroke="#22303a" stroke-width="2" points="56,48 78,54 56,60 34,54"/><rect width="7" height="6" x="48" y="68" fill="#cfe6ef" rx="1.5"/><rect width="7" height="6" x="59" y="68" fill="#cfe6ef" rx="1.5"/><polygon fill="#7d7268" stroke="#22303a" stroke-width="2" points="88,57.5 108,63 108,85 88,79.5"/><polygon fill="#998e84" stroke="#22303a" stroke-width="2" points="128,57.5 108,63 108,85 128,79.5"/><polygon fill="#8a5d4a" stroke="#22303a" stroke-width="2" points="108,52 128,57.5 108,63 88,57.5"/><rect width="7" height="6" x="100" y="71" fill="#cfe6ef" rx="1.5"/><rect width="7" height="6" x="111" y="71" fill="#cfe6ef" rx="1.5"/><polygon fill="#998e84" stroke="#22303a" stroke-width="2" points="54,65 72,70 72,88 54,83"/><polygon fill="#beb7af" stroke="#22303a" stroke-width="2" points="90,65 72,70 72,88 90,83"/><polygon fill="#6f777d" stroke="#22303a" stroke-width="2" points="72,60 90,65 72,70 54,65"/><rect width="7" height="6" x="64" y="78" fill="#cfe6ef" rx="1.5"/><rect width="7" height="6" x="75" y="78" fill="#cfe6ef" rx="1.5"/><polygon fill="#7d7268" stroke="#22303a" stroke-width="2" points="78,68 96,73 96,89 78,84"/><polygon fill="#9c6751" stroke="#22303a" stroke-width="2" points="114,68 96,73 96,89 114,84"/><polygon fill="#9c6751" stroke="#22303a" stroke-width="2" points="96,63 114,68 96,73 78,68"/><rect width="7" height="6" x="88" y="81" fill="#cfe6ef" rx="1.5"/><rect width="7" height="6" x="99" y="81" fill="#cfe6ef" rx="1.5"/><polygon fill="#998e84" stroke="#22303a" stroke-width="2" points="32,71.5 48,76 48,90 32,85.5"/><polygon fill="#998e84" stroke="#22303a" stroke-width="2" points="64,71.5 48,76 48,90 64,85.5"/><polygon fill="#8a5d4a" stroke="#22303a" stroke-width="2" points="48,67 64,71.5 48,76 32,71.5"/><rect width="7" height="6" x="40" y="84" fill="#cfe6ef" rx="1.5"/><rect width="7" height="6" x="51" y="84" fill="#cfe6ef" rx="1.5"/></svg>
