<svg xmlns="http://www.w3.org/2000/svg" viewBox="0 0 160 160" fill="none"><g id="favela-cluster-asset" data-asset-type="favela-cluster" data-category="favela" data-density="high"><g transform="translate(10 21.67) scale(0.7292)" id="favela-cluster-render-root"><g id="placement-external-pipe-12" transform="translate(29 -20) scale(1.027)" data-module-id="external-pipe" data-node-id="external-pipe-12" data-layer="background"><g><line x1="92" y1="92" x2="92" y2="116" stroke="#74655a" stroke-width="2.2" stroke-linecap="round"/><line x1="92" y1="94" x2="98" y2="92" stroke="#74655a" stroke-width="2.2" stroke-linecap="round"/><line x1="92" y1="113" x2="97" y2="118" stroke="#74655a" stroke-width="2.2" stroke-linecap="round"/></g></g><g id="placement-stair-11" transform="translate(29 -14) scale(1.051)" data-module-id="stair" data-node-id="stair-11" data-layer="background"><g><polygon points="64,94 72,96 72,101 64,99" fill="#78685d" stroke="#2f241f" stroke-width="1.1" stroke-linejoin="round"/><polygon points="69,98 77,100 77,105 69,103" fill="#78685d" stroke="#2f241f" stroke-width="1.1" stroke-linejoin="round"/><polygon points="74,102 82,104 82,109 74,107" fill="#78685d" stroke="#2f241f" stroke-width="1.1" stroke-linejoin="round"/><polygon points="79,106 87,108 87,113 79,111" fill="#78685d" stroke="#2f241f" stroke-width="1.1" stroke-linejoin="round"/><polygon points="84,110 92,112 92,117 84,115" fill="#78685d" stroke="#2f241f" stroke-width="1.1" stroke-linejoin="round"/></g></g><g id="placement-water-tank-10" transform="translate(-2 -2) scale(0.999)" data-module-id="water-tank" data-node-id="water-tank-10" data-layer="background"><g><ellipse cx="92" cy="110" rx="10" ry="4.5" fill="#314b67" opacity="0.28"/><rect x="85" y="96" width="14" height="11" fill="#3f6790" stroke="#2f241f" stroke-width="1.3" rx="2"/><ellipse cx="92" cy="96" rx="7" ry="2.2" fill="#6a97be" stroke="#2f241f" stroke-width="1"/></g></g><g id="placement-wide-building-8" transform="translate(27 -17) scale(0.966)" data-module-id="wide-building" data-node-id="wide-building-8" data-layer="midground"><g><polygon points="92,88 120,99 92,110 64,99" fill="#d1c5bb" stroke="#2f241f" stroke-width="1.8" stroke-linejoin="round"/><polygon points="64,99 92,110 92,140 64,129" fill="#7f6a5f" stroke="#2f241f" stroke-width="1.8" stroke-linejoin="round"/><polygon points="92,88 120,99 120,129 92,118" fill="#917b6f" stroke="#2f241f" stroke-width="1.8" stroke-linejoin="round"/></g><polygon points="93,96 105,100 105,110 93,106" fill="#8ac3dc" stroke="#2f241f" stroke-width="1.1" stroke-linejoin="round"/><polygon points="75,102 85,98 85,106 75,110" fill="#8ac3dc" stroke="#2f241f" stroke-width="1.1" stroke-linejoin="round"/><g><polygon points="86,105 106,109 103,117 83,113" fill="#567362" stroke="#2f241f" stroke-width="1.2" stroke-linejoin="round"/><line x1="89" y1="107" x2="86" y2="114" stroke="#3f5144" stroke-width="1"/><line x1="96" y1="109" x2="94" y2="116" stroke="#3f5144" stroke-width="1"/></g></g><g id="placement-building-2f-7" transform="translate(18 -8) scale(0.952)" data-module-id="building-2f" data-node-id="building-2f-7" data-layer="midground"><g><polygon points="92,92 116,102 92,112 68,102" fill="#c9b8aa" stroke="#2f241f" stroke-width="1.8" stroke-linejoin="round"/><polygon points="68,102 92,112 92,138 68,128" fill="#776358" stroke="#2f241f" stroke-width="1.8" stroke-linejoin="round"/><polygon points="92,92 116,102 116,128 92,118" fill="#887465" stroke="#2f241f" stroke-width="1.8" stroke-linejoin="round"/></g><g><polygon points="100,68 120,77 100,86 80,77" fill="#d8ccc1" stroke="#2f241f" stroke-width="1.8" stroke-linejoin="round"/><polygon points="80,77 100,86 100,110 80,101" fill="#8a7669" stroke="#2f241f" stroke-width="1.8" stroke-linejoin="round"/><polygon points="100,68 120,77 120,101 100,92" fill="#9a8679" stroke="#2f241f" stroke-width="1.8" stroke-linejoin="round"/></g><polygon points="96,77 107,81 107,91 96,87" fill="#8ac3dc" stroke="#2f241f" stroke-width="1.1" stroke-linejoin="round"/><polygon points="79,101 88,97 88,105 79,109" fill="#8ac3dc" stroke="#2f241f" stroke-width="1.1" stroke-linejoin="round"/></g><g id="placement-narrow-building-9" transform="translate(-19 -10) scale(1.034)" data-module-id="narrow-building" data-node-id="narrow-building-9" data-layer="midground"><g><polygon points="94,84 109,92 94,100 79,92" fill="#cbbbad" stroke="#2f241f" stroke-width="1.8" stroke-linejoin="round"/><polygon points="79,92 94,100 94,134 79,126" fill="#746157" stroke="#2f241f" stroke-width="1.8" stroke-linejoin="round"/><polygon points="94,84 109,92 109,126 94,118" fill="#866f63" stroke="#2f241f" stroke-width="1.8" stroke-linejoin="round"/></g><polygon points="92,95 100,99 100,108 92,104" fill="#8ac3dc" stroke="#2f241f" stroke-width="1.1" stroke-linejoin="round"/><polygon points="82,100 89,96 89,103 82,107" fill="#8ac3dc" stroke="#2f241f" stroke-width="1.1" stroke-linejoin="round"/></g><g id="placement-building-3f-6" transform="translate(0 -6) scale(1.057)" data-module-id="building-3f" data-node-id="building-3f-6" data-layer="midground"><g><polygon points="92,94 113,103 92,112 71,103" fill="#c3b0a1" stroke="#2f241f" stroke-width="1.8" stroke-linejoin="round"/><polygon points="71,103 92,112 92,136 71,127" fill="#735f54" stroke="#2f241f" stroke-width="1.8" stroke-linejoin="round"/><polygon points="92,94 113,103 113,127 92,118" fill="#856f62" stroke="#2f241f" stroke-width="1.8" stroke-linejoin="round"/></g><g><polygon points="98,73 117,81 98,89 79,81" fill="#d0c3b6" stroke="#2f241f" stroke-width="1.8" stroke-linejoin="round"/><polygon points="79,81 98,89 98,111 79,103" fill="#817063" stroke="#2f241f" stroke-width="1.8" stroke-linejoin="round"/><polygon points="98,73 117,81 117,103 98,95" fill="#917d70" stroke="#2f241f" stroke-width="1.8" stroke-linejoin="round"/></g><g><polygon points="104,54 120,61 104,68 88,61" fill="#d9cfc7" stroke="#2f241f" stroke-width="1.8" stroke-linejoin="round"/><polygon points="88,61 104,68 104,88 88,81" fill="#8a786a" stroke="#2f241f" stroke-width="1.8" stroke-linejoin="round"/><polygon points="104,54 120,61 120,81 104,74" fill="#9a8879" stroke="#2f241f" stroke-width="1.8" stroke-linejoin="round"/></g><polygon points="101,60 111,64 111,73 101,69" fill="#8ac3dc" stroke="#2f241f" stroke-width="1.1" stroke-linejoin="round"/><polygon points="86,83 94,79 94,87 86,91" fill="#8ac3dc" stroke="#2f241f" stroke-width="1.1" stroke-linejoin="round"/></g><g id="placement-cluster-service-strip-5" transform="translate(-9 2) scale(1.079)" data-module-id="cluster-service-strip" data-node-id="cluster-service-strip-5" data-layer="midground"><g><polygon points="90,95 123,105 90,115 57,105" fill="#a99487" stroke="#2f241f" stroke-width="1.8" stroke-linejoin="round"/><polygon points="57,105 90,115 90,135 57,125" fill="#65544b" stroke="#2f241f" stroke-width="1.8" stroke-linejoin="round"/><polygon points="90,95 123,105 123,125 90,115" fill="#76645a" stroke="#2f241f" stroke-width="1.8" stroke-linejoin="round"/></g><g><polygon points="59,106 70,112 59,118 48,112" fill="#9d877b" stroke="#2f241f" stroke-width="1.8" stroke-linejoin="round"/><polygon points="48,112 59,118 59,132 48,126" fill="#5e4f47" stroke="#2f241f" stroke-width="1.8" stroke-linejoin="round"/><polygon points="59,106 70,112 70,126 59,120" fill="#726057" stroke="#2f241f" stroke-width="1.8" stroke-linejoin="round"/></g><g><polygon points="49,100 57,102 57,107 49,105" fill="#65564e" stroke="#2f241f" stroke-width="1.1" stroke-linejoin="round"/><polygon points="54,104 62,106 62,111 54,109" fill="#65564e" stroke="#2f241f" stroke-width="1.1" stroke-linejoin="round"/><polygon points="59,108 67,110 67,115 59,113" fill="#65564e" stroke="#2f241f" stroke-width="1.1" stroke-linejoin="round"/><polygon points="64,112 72,114 72,119 64,117" fill="#65564e" stroke="#2f241f" stroke-width="1.1" stroke-linejoin="round"/><polygon points="69,116 77,118 77,123 69,121" fill="#65564e" stroke="#2f241f" stroke-width="1.1" stroke-linejoin="round"/><polygon points="74,120 82,122 82,127 74,125" fill="#65564e" stroke="#2f241f" stroke-width="1.1" stroke-linejoin="round"/></g><g><polygon points="86,94 108,98 105,106 83,102" fill="#5e7668" stroke="#2f241f" stroke-width="1.2" stroke-linejoin="round"/><line x1="89" y1="96" x2="86" y2="103" stroke="#3f5144" stroke-width="1"/><line x1="97" y1="98" x2="95" y2="105" stroke="#3f5144" stroke-width="1"/></g><g><polygon points="108,100 122,104 119,112 105,108" fill="#657161" stroke="#2f241f" stroke-width="1.2" stroke-linejoin="round"/><line x1="111" y1="102" x2="108" y2="109" stroke="#3f5144" stroke-width="1"/><line x1="115" y1="104" x2="113" y2="111" stroke="#3f5144" stroke-width="1"/></g><g><line x1="129" y1="94" x2="129" y2="112" stroke="#74655a" stroke-width="2.2" stroke-linecap="round"/><line x1="129" y1="96" x2="135" y2="94" stroke="#74655a" stroke-width="2.2" stroke-linecap="round"/><line x1="129" y1="109" x2="134" y2="114" stroke="#74655a" stroke-width="2.2" stroke-linecap="round"/></g><polygon points="79,104 87,100 87,108 79,112" fill="#86b7cd" stroke="#2f241f" stroke-width="1.1" stroke-linejoin="round"/><polygon points="96,107 104,111 104,119 96,115" fill="#79aec7" stroke="#2f241f" stroke-width="1.1" stroke-linejoin="round"/><polygon points="115,110 122,114 122,121 115,117" fill="#7da9bf" stroke="#2f241f" stroke-width="1.1" stroke-linejoin="round"/></g><g id="placement-cluster-roofline-4" transform="translate(32 21) scale(0.971)" data-module-id="cluster-roofline" data-node-id="cluster-roofline-4" data-layer="foreground"><polygon points="70,88 84,95 70,102 56,95" fill="#d4cbc4" stroke="#2f241f" stroke-width="1.4" stroke-linejoin="round"/><g><polygon points="96,82 112,90 96,98 80,90" fill="#7f6f63" stroke="#2f241f" stroke-width="1.4" stroke-linejoin="round"/><line x1="88" y1="87.33333333333333" x2="92.8" y2="92" stroke="#65564b" stroke-width="1"/><line x1="93.33333333333333" y1="86" x2="98.28571428571429" y2="91.6" stroke="#65564b" stroke-width="1"/><line x1="101.33333333333333" y1="86.8" x2="105.41176470588235" y2="92.28571428571429" stroke="#65564b" stroke-width="1"/></g><polygon points="122,83 133,88 122,93 111,88" fill="#dad2cb" stroke="#2f241f" stroke-width="1.4" stroke-linejoin="round"/><g><polygon points="143,88 151,92 143,96 135,92" fill="#76695d" stroke="#2f241f" stroke-width="1.4" stroke-linejoin="round"/><line x1="139" y1="90.66666666666667" x2="141.4" y2="93" stroke="#65564b" stroke-width="1"/><line x1="141.66666666666666" y1="90" x2="144.14285714285714" y2="92.8" stroke="#65564b" stroke-width="1"/><line x1="145.66666666666666" y1="90.4" x2="147.7058823529412" y2="93.14285714285714" stroke="#65564b" stroke-width="1"/></g><g><ellipse cx="72" cy="94" rx="10" ry="4.5" fill="#314b67" opacity="0.28"/><rect x="65" y="80" width="14" height="11" fill="#3f6790" stroke="#2f241f" stroke-width="1.3" rx="2"/><ellipse cx="72" cy="80" rx="7" ry="2.2" fill="#6a97be" stroke="#2f241f" stroke-width="1"/></g><g><ellipse cx="122" cy="88" rx="10" ry="4.5" fill="#314b67" opacity="0.28"/><rect x="115" y="74" width="14" height="11" fill="#3f6790" stroke="#2f241f" stroke-width="1.3" rx="2"/><ellipse cx="122" cy="74" rx="7" ry="2.2" fill="#6a97be" stroke="#2f241f" stroke-width="1"/></g><g><line x1="111" y1="86" x2="111" y2="102" stroke="#74655a" stroke-width="2.2" stroke-linecap="round"/><line x1="111" y1="88" x2="117" y2="86" stroke="#74655a" stroke-width="2.2" stroke-linecap="round"/><line x1="111" y1="99" x2="116" y2="104" stroke="#74655a" stroke-width="2.2" stroke-linecap="round"/></g></g><g id="placement-cluster-step-right-3" transform="translate(12 6) scale(1.093)" data-module-id="cluster-step-right" data-node-id="cluster-step-right-3" data-layer="foreground"><g><polygon points="82,78 102,87 82,96 62,87" fill="#d2c0b1" stroke="#2f241f" stroke-width="1.8" stroke-linejoin="round"/><polygon points="62,87 82,96 82,132 62,123" fill="#7b685d" stroke="#2f241f" stroke-width="1.8" stroke-linejoin="round"/><polygon points="82,78 102,87 102,123 82,114" fill="#907d6f" stroke="#2f241f" stroke-width="1.8" stroke-linejoin="round"/></g><g><polygon points="111,77 128,85 111,93 94,85" fill="#c7bbb0" stroke="#2f241f" stroke-width="1.8" stroke-linejoin="round"/><polygon points="94,85 111,93 111,122 94,114" fill="#76645a" stroke="#2f241f" stroke-width="1.8" stroke-linejoin="round"/><polygon points="111,77 128,85 128,114 111,106" fill="#89766a" stroke="#2f241f" stroke-width="1.8" stroke-linejoin="round"/></g><g><polygon points="138,78 151,85 138,92 125,85" fill="#aa9989" stroke="#2f241f" stroke-width="1.8" stroke-linejoin="round"/><polygon points="125,85 138,92 138,113 125,106" fill="#67564b" stroke="#2f241f" stroke-width="1.8" stroke-linejoin="round"/><polygon points="138,78 151,85 151,106 138,99" fill="#7b695c" stroke="#2f241f" stroke-width="1.8" stroke-linejoin="round"/></g><g><polygon points="137,72 148,77 137,82 126,77" fill="#7b6d63" stroke="#2f241f" stroke-width="1.4" stroke-linejoin="round"/><line x1="131.5" y1="75.33333333333333" x2="134.8" y2="78.25" stroke="#65564b" stroke-width="1"/><line x1="135.16666666666666" y1="74.5" x2="138.57142857142858" y2="78" stroke="#65564b" stroke-width="1"/><line x1="140.66666666666666" y1="75" x2="143.47058823529412" y2="78.42857142857143" stroke="#65564b" stroke-width="1"/></g><g><polygon points="92,94 110,98 107,106 89,102" fill="#657767" stroke="#2f241f" stroke-width="1.2" stroke-linejoin="round"/><line x1="95" y1="96" x2="92" y2="103" stroke="#3f5144" stroke-width="1"/><line x1="101" y1="98" x2="99" y2="105" stroke="#3f5144" stroke-width="1"/></g><g><polygon points="122,101 136,105 133,113 119,109" fill="#56685d" stroke="#2f241f" stroke-width="1.2" stroke-linejoin="round"/><line x1="125" y1="103" x2="122" y2="110" stroke="#3f5144" stroke-width="1"/><line x1="129" y1="105" x2="127" y2="112" stroke="#3f5144" stroke-width="1"/></g><g><line x1="76" y1="81" x2="76" y2="105" stroke="#74655a" stroke-width="2.2" stroke-linecap="round"/><line x1="76" y1="83" x2="82" y2="81" stroke="#74655a" stroke-width="2.2" stroke-linecap="round"/><line x1="76" y1="102" x2="81" y2="107" stroke="#74655a" stroke-width="2.2" stroke-linecap="round"/></g><g><ellipse cx="102" cy="80" rx="10" ry="4.5" fill="#314b67" opacity="0.28"/><rect x="95" y="66" width="14" height="11" fill="#3f6790" stroke="#2f241f" stroke-width="1.3" rx="2"/><ellipse cx="102" cy="66" rx="7" ry="2.2" fill="#6a97be" stroke="#2f241f" stroke-width="1"/></g><polygon points="84,81 92,85 92,94 84,90" fill="#85b4cb" stroke="#2f241f" stroke-width="1.1" stroke-linejoin="round"/><polygon points="107,92 114,96 114,104 107,100" fill="#7aa8c2" stroke="#2f241f" stroke-width="1.1" stroke-linejoin="round"/><polygon points="140,90 146,94 146,101 140,97" fill="#7aa8c2" stroke="#2f241f" stroke-width="1.1" stroke-linejoin="round"/></g><g id="placement-cluster-step-left-2" transform="translate(5 9) scale(1.071)" data-module-id="cluster-step-left" data-node-id="cluster-step-left-2" data-layer="foreground"><g><polygon points="66,93 84,102 66,111 48,102" fill="#b79e8d" stroke="#2f241f" stroke-width="1.8" stroke-linejoin="round"/><polygon points="48,102 66,111 66,134 48,125" fill="#6f5c51" stroke="#2f241f" stroke-width="1.8" stroke-linejoin="round"/><polygon points="66,93 84,102 84,125 66,116" fill="#826e61" stroke="#2f241f" stroke-width="1.8" stroke-linejoin="round"/></g><g><polygon points="90,72 109,81 90,90 71,81" fill="#c6b6ab" stroke="#2f241f" stroke-width="1.8" stroke-linejoin="round"/><polygon points="71,81 90,90 90,126 71,117" fill="#7d6c62" stroke="#2f241f" stroke-width="1.8" stroke-linejoin="round"/><polygon points="90,72 109,81 109,117 90,108" fill="#907f73" stroke="#2f241f" stroke-width="1.8" stroke-linejoin="round"/></g><g><polygon points="116,52 131,60 116,68 101,60" fill="#d2c8bf" stroke="#2f241f" stroke-width="1.8" stroke-linejoin="round"/><polygon points="101,60 116,68 116,114 101,106" fill="#857266" stroke="#2f241f" stroke-width="1.8" stroke-linejoin="round"/><polygon points="116,52 131,60 131,106 116,98" fill="#978276" stroke="#2f241f" stroke-width="1.8" stroke-linejoin="round"/></g><polygon points="116,45 129,51 116,57 103,51" fill="#d7cec6" stroke="#2f241f" stroke-width="1.4" stroke-linejoin="round"/><g><polygon points="89,70 102,76 89,82 76,76" fill="#7a6c61" stroke="#2f241f" stroke-width="1.4" stroke-linejoin="round"/><line x1="82.5" y1="74" x2="86.4" y2="77.5" stroke="#65564b" stroke-width="1"/><line x1="86.83333333333333" y1="73" x2="90.85714285714286" y2="77.2" stroke="#65564b" stroke-width="1"/><line x1="93.33333333333333" y1="73.6" x2="96.6470588235294" y2="77.71428571428571" stroke="#65564b" stroke-width="1"/></g><g><polygon points="42,100 50,102 50,107 42,105" fill="#6a5a50" stroke="#2f241f" stroke-width="1.1" stroke-linejoin="round"/><polygon points="47,104 55,106 55,111 47,109" fill="#6a5a50" stroke="#2f241f" stroke-width="1.1" stroke-linejoin="round"/><polygon points="52,108 60,110 60,115 52,113" fill="#6a5a50" stroke="#2f241f" stroke-width="1.1" stroke-linejoin="round"/><polygon points="57,112 65,114 65,119 57,117" fill="#6a5a50" stroke="#2f241f" stroke-width="1.1" stroke-linejoin="round"/><polygon points="62,116 70,118 70,123 62,121" fill="#6a5a50" stroke="#2f241f" stroke-width="1.1" stroke-linejoin="round"/></g><g><ellipse cx="94" cy="72" rx="10" ry="4.5" fill="#314b67" opacity="0.28"/><rect x="87" y="58" width="14" height="11" fill="#3f6790" stroke="#2f241f" stroke-width="1.3" rx="2"/><ellipse cx="94" cy="58" rx="7" ry="2.2" fill="#6a97be" stroke="#2f241f" stroke-width="1"/></g><g><polygon points="63,99 81,103 78,111 60,107" fill="#5b6e62" stroke="#2f241f" stroke-width="1.2" stroke-linejoin="round"/><line x1="66" y1="101" x2="63" y2="108" stroke="#3f5144" stroke-width="1"/><line x1="72" y1="103" x2="70" y2="110" stroke="#3f5144" stroke-width="1"/></g><polygon points="84,84 92,88 92,96 84,92" fill="#81b1c7" stroke="#2f241f" stroke-width="1.1" stroke-linejoin="round"/><polygon points="107,71 115,75 115,84 107,80" fill="#89bad4" stroke="#2f241f" stroke-width="1.1" stroke-linejoin="round"/><polygon points="54,98 61,94 61,101 54,105" fill="#76a5bd" stroke="#2f241f" stroke-width="1.1" stroke-linejoin="round"/></g><g id="placement-cluster-core-dense-1" transform="translate(-9 16) scale(0.94)" data-module-id="cluster-core-dense" data-node-id="cluster-core-dense-1" data-layer="foreground"><g><polygon points="68,86 90,96 68,106 46,96" fill="#b19382" stroke="#2f241f" stroke-width="1.8" stroke-linejoin="round"/><polygon points="46,96 68,106 68,136 46,126" fill="#6e5a50" stroke="#2f241f" stroke-width="1.8" stroke-linejoin="round"/><polygon points="68,86 90,96 90,126 68,116" fill="#806a5f" stroke="#2f241f" stroke-width="1.8" stroke-linejoin="round"/></g><g><polygon points="96,64 119,75 96,86 73,75" fill="#d0c0b2" stroke="#2f241f" stroke-width="1.8" stroke-linejoin="round"/><polygon points="73,75 96,86 96,130 73,119" fill="#886f62" stroke="#2f241f" stroke-width="1.8" stroke-linejoin="round"/><polygon points="96,64 119,75 119,119 96,108" fill="#9a8274" stroke="#2f241f" stroke-width="1.8" stroke-linejoin="round"/></g><g><polygon points="126,68 144,77 126,86 108,77" fill="#c8b29f" stroke="#2f241f" stroke-width="1.8" stroke-linejoin="round"/><polygon points="108,77 126,86 126,120 108,111" fill="#7b6358" stroke="#2f241f" stroke-width="1.8" stroke-linejoin="round"/><polygon points="126,68 144,77 144,111 126,102" fill="#8d7468" stroke="#2f241f" stroke-width="1.8" stroke-linejoin="round"/></g><g><polygon points="146,73 158,80 146,87 134,80" fill="#a69283" stroke="#2f241f" stroke-width="1.8" stroke-linejoin="round"/><polygon points="134,80 146,87 146,109 134,102" fill="#68574c" stroke="#2f241f" stroke-width="1.8" stroke-linejoin="round"/><polygon points="146,73 158,80 158,102 146,95" fill="#7c695d" stroke="#2f241f" stroke-width="1.8" stroke-linejoin="round"/></g><g><polygon points="98,54 115,62 98,70 81,62" fill="#807166" stroke="#2f241f" stroke-width="1.4" stroke-linejoin="round"/><line x1="89.5" y1="59.333333333333336" x2="94.6" y2="64" stroke="#65564b" stroke-width="1"/><line x1="95.16666666666667" y1="58" x2="100.42857142857143" y2="63.6" stroke="#65564b" stroke-width="1"/><line x1="103.66666666666667" y1="58.8" x2="108" y2="64.28571428571429" stroke="#65564b" stroke-width="1"/></g><g><polygon points="126,66 139,72 126,78 113,72" fill="#72645a" stroke="#2f241f" stroke-width="1.4" stroke-linejoin="round"/><line x1="119.5" y1="70" x2="123.4" y2="73.5" stroke="#65564b" stroke-width="1"/><line x1="123.83333333333333" y1="69" x2="127.85714285714286" y2="73.2" stroke="#65564b" stroke-width="1"/><line x1="130.33333333333334" y1="69.6" x2="133.64705882352942" y2="73.71428571428571" stroke="#65564b" stroke-width="1"/></g><g><ellipse cx="71" cy="85" rx="10" ry="4.5" fill="#314b67" opacity="0.28"/><rect x="64" y="71" width="14" height="11" fill="#3f6790" stroke="#2f241f" stroke-width="1.3" rx="2"/><ellipse cx="71" cy="71" rx="7" ry="2.2" fill="#6a97be" stroke="#2f241f" stroke-width="1"/></g><g><ellipse cx="103" cy="74" rx="10" ry="4.5" fill="#314b67" opacity="0.28"/><rect x="96" y="60" width="14" height="11" fill="#3f6790" stroke="#2f241f" stroke-width="1.3" rx="2"/><ellipse cx="103" cy="60" rx="7" ry="2.2" fill="#6a97be" stroke="#2f241f" stroke-width="1"/></g><g><polygon points="41,100 65,104 62,112 38,108" fill="#4f7565" stroke="#2f241f" stroke-width="1.2" stroke-linejoin="round"/><line x1="44" y1="102" x2="41" y2="109" stroke="#3f5144" stroke-width="1"/><line x1="53" y1="104" x2="51" y2="111" stroke="#3f5144" stroke-width="1"/></g><g><polygon points="115,103 133,107 130,115 112,111" fill="#5e6d5f" stroke="#2f241f" stroke-width="1.2" stroke-linejoin="round"/><line x1="118" y1="105" x2="115" y2="112" stroke="#3f5144" stroke-width="1"/><line x1="124" y1="107" x2="122" y2="114" stroke="#3f5144" stroke-width="1"/></g><g><line x1="138" y1="80" x2="138" y2="108" stroke="#74655a" stroke-width="2.2" stroke-linecap="round"/><line x1="138" y1="82" x2="144" y2="80" stroke="#74655a" stroke-width="2.2" stroke-linecap="round"/><line x1="138" y1="105" x2="143" y2="110" stroke="#74655a" stroke-width="2.2" stroke-linecap="round"/></g><g><line x1="56" y1="90" x2="56" y2="112" stroke="#74655a" stroke-width="2.2" stroke-linecap="round"/><line x1="56" y1="92" x2="62" y2="90" stroke="#74655a" stroke-width="2.2" stroke-linecap="round"/><line x1="56" y1="109" x2="61" y2="114" stroke="#74655a" stroke-width="2.2" stroke-linecap="round"/></g><g><polygon points="37,102 45,104 45,109 37,107" fill="#6d5e54" stroke="#2f241f" stroke-width="1.1" stroke-linejoin="round"/><polygon points="42,106 50,108 50,113 42,111" fill="#6d5e54" stroke="#2f241f" stroke-width="1.1" stroke-linejoin="round"/><polygon points="47,110 55,112 55,117 47,115" fill="#6d5e54" stroke="#2f241f" stroke-width="1.1" stroke-linejoin="round"/><polygon points="52,114 60,116 60,121 52,119" fill="#6d5e54" stroke="#2f241f" stroke-width="1.1" stroke-linejoin="round"/><polygon points="57,118 65,120 65,125 57,123" fill="#6d5e54" stroke="#2f241f" stroke-width="1.1" stroke-linejoin="round"/></g><polygon points="83,80 93,84 93,94 83,90" fill="#6fa1c5" stroke="#2f241f" stroke-width="1.1" stroke-linejoin="round"/><polygon points="111,83 119,87 119,96 111,92" fill="#7bb2cf" stroke="#2f241f" stroke-width="1.1" stroke-linejoin="round"/><polygon points="53,93 61,89 61,97 53,101" fill="#86b7cd" stroke="#2f241f" stroke-width="1.1" stroke-linejoin="round"/><polygon points="137,87 143,91 143,99 137,95" fill="#89b6c8" stroke="#2f241f" stroke-width="1.1" stroke-linejoin="round"/></g><g id="placement-corrugated-roof-14" transform="translate(1 -8) scale(1.081)" data-module-id="corrugated-roof" data-node-id="corrugated-roof-14" data-layer="overlay"><g><polygon points="92,96 109,104 92,112 75,104" fill="#8a7869" stroke="#2f241f" stroke-width="1.4" stroke-linejoin="round"/><line x1="83.5" y1="101.33333333333333" x2="88.6" y2="106" stroke="#65564b" stroke-width="1"/><line x1="89.16666666666667" y1="100" x2="94.42857142857143" y2="105.6" stroke="#65564b" stroke-width="1"/><line x1="97.66666666666667" y1="100.8" x2="102" y2="106.28571428571429" stroke="#65564b" stroke-width="1"/></g></g><g id="placement-awning-13" transform="translate(-10 -15) scale(0.986)" data-module-id="awning" data-node-id="awning-13" data-layer="overlay"><g><polygon points="80,98 104,102 101,110 77,106" fill="#567362" stroke="#2f241f" stroke-width="1.2" stroke-linejoin="round"/><line x1="83" y1="100" x2="80" y2="107" stroke="#3f5144" stroke-width="1"/><line x1="92" y1="102" x2="90" y2="109" stroke="#3f5144" stroke-width="1"/></g></g></g></g></svg>
